Courier Primal.ufo
<glyph name="percent" format="2">
  <advance width="1228"/>
  <unicode hex="0025"/>
  <outline>
    <contour>
      <point x="50" y="935" type="qcurve" smooth="yes"/>
      <point x="50" y="992"/>
      <point x="93" y="1091"/>
      <point x="130.5" y="1128.5" type="qcurve" smooth="yes" name="inserted"/>
      <point x="168" y="1166"/>
      <point x="267" y="1209"/>
      <point x="324" y="1209" type="qcurve" smooth="yes"/>
      <point x="381" y="1209"/>
      <point x="480" y="1166"/>
      <point x="517.5" y="1128.5" type="qcurve" smooth="yes" name="inserted"/>
      <point x="555" y="1091"/>
      <point x="598" y="992"/>
      <point x="598" y="935" type="qcurve" smooth="yes"/>
      <point x="598" y="878"/>
      <point x="555" y="779"/>
      <point x="517.5" y="741.5" type="qcurve" smooth="yes" name="inserted"/>
      <point x="480" y="704"/>
      <point x="381" y="661"/>
      <point x="324" y="661" type="qcurve" smooth="yes"/>
      <point x="267" y="661"/>
      <point x="168" y="704"/>
      <point x="130.5" y="741.5" type="qcurve" smooth="yes" name="inserted"/>
      <point x="93" y="779"/>
      <point x="50" y="878"/>
    </contour>
    <contour>
      <point x="630" y="252" type="qcurve" smooth="yes"/>
      <point x="630" y="309"/>
      <point x="673" y="408"/>
      <point x="710.5" y="445.5" type="qcurve" smooth="yes" name="inserted"/>
      <point x="748" y="483"/>
      <point x="847" y="526"/>
      <point x="904" y="526" type="qcurve" smooth="yes"/>
      <point x="961" y="526"/>
      <point x="1060" y="483"/>
      <point x="1097.5" y="445.5" type="qcurve" smooth="yes" name="inserted"/>
      <point x="1135" y="408"/>
      <point x="1178" y="309"/>
      <point x="1178" y="252" type="qcurve" smooth="yes"/>
      <point x="1178" y="195"/>
      <point x="1135" y="96"/>
      <point x="1097.5" y="58.5" type="qcurve" smooth="yes" name="inserted"/>
      <point x="1060" y="21"/>
      <point x="961" y="-22"/>
      <point x="904" y="-22" type="qcurve" smooth="yes"/>
      <point x="847" y="-22"/>
      <point x="748" y="21"/>
      <point x="710.5" y="58.5" type="qcurve" smooth="yes" name="inserted"/>
      <point x="673" y="96"/>
      <point x="630" y="195"/>
    </contour>
    <contour>
      <point x="180" y="935" type="qcurve" smooth="yes"/>
      <point x="180" y="905"/>
      <point x="203" y="853"/>
      <point x="222.5" y="833.5" type="qcurve" smooth="yes" name="inserted"/>
      <point x="242" y="814"/>
      <point x="294" y="791"/>
      <point x="324" y="791" type="qcurve" smooth="yes"/>
      <point x="354" y="791"/>
      <point x="406" y="814"/>
      <point x="425.5" y="833.5" type="qcurve" smooth="yes" name="inserted"/>
      <point x="445" y="853"/>
      <point x="468" y="905"/>
      <point x="468" y="935" type="qcurve" smooth="yes"/>
      <point x="468" y="965"/>
      <point x="445" y="1017"/>
      <point x="425.5" y="1036.5" type="qcurve" smooth="yes" name="inserted"/>
      <point x="406" y="1056"/>
      <point x="354" y="1079"/>
      <point x="324" y="1079" type="qcurve" smooth="yes"/>
      <point x="294" y="1079"/>
      <point x="242" y="1056"/>
      <point x="222.5" y="1036.5" type="qcurve" smooth="yes" name="inserted"/>
      <point x="203" y="1017"/>
      <point x="180" y="965"/>
    </contour>
    <contour>
      <point x="760" y="252" type="qcurve" smooth="yes"/>
      <point x="760" y="222"/>
      <point x="783" y="170"/>
      <point x="802.5" y="150.5" type="qcurve" smooth="yes" name="inserted"/>
      <point x="822" y="131"/>
      <point x="874" y="108"/>
      <point x="904" y="108" type="qcurve" smooth="yes"/>
      <point x="934" y="108"/>
      <point x="986" y="131"/>
      <point x="1005.5" y="150.5" type="qcurve" smooth="yes" name="inserted"/>
      <point x="1025" y="170"/>
      <point x="1048" y="222"/>
      <point x="1048" y="252" type="qcurve" smooth="yes"/>
      <point x="1048" y="282"/>
      <point x="1025" y="334"/>
      <point x="1005.5" y="353.5" type="qcurve" smooth="yes" name="inserted"/>
      <point x="986" y="373"/>
      <point x="934" y="396"/>
      <point x="904" y="396" type="qcurve" smooth="yes"/>
      <point x="874" y="396"/>
      <point x="822" y="373"/>
      <point x="802.5" y="353.5" type="qcurve" smooth="yes" name="inserted"/>
      <point x="783" y="334"/>
      <point x="760" y="282"/>
    </contour>
    <contour>
      <point x="1003" y="1059" type="line" smooth="yes"/>
      <point x="1027.0" y="1081.5" name="inserted"/>
      <point x="1074.5" y="1079.0"/>
      <point x="1098" y="1054" type="qcurve" smooth="yes"/>
      <point x="1122.5" y="1029.0" name="inserted"/>
      <point x="1123.0" y="981.5"/>
      <point x="1099" y="959" type="qcurve" smooth="yes"/>
      <point x="225" y="129" type="line" smooth="yes"/>
      <point x="201.0" y="106.5" name="inserted"/>
      <point x="153.5" y="109.0"/>
      <point x="130" y="134" type="qcurve" smooth="yes"/>
      <point x="105.5" y="159.0" name="inserted"/>
      <point x="105.0" y="206.5"/>
      <point x="129" y="229" type="qcurve" smooth="yes"/>
    </contour>
  </outline>
</glyph>
<glyph name="asterisk" format="2">
  <advance width="1228"/>
  <unicode hex="002A"/>
  <outline>
    <contour>
      <point x="872" y="415" type="qcurve" smooth="yes"/>
      <point x="834" y="387"/>
      <point x="769" y="404"/>
      <point x="749" y="440" type="qcurve" smooth="yes"/>
      <point x="614" y="685" type="line"/>
      <point x="479" y="440" type="line" smooth="yes"/>
      <point x="459" y="404"/>
      <point x="394" y="387"/>
      <point x="356" y="415" type="qcurve" smooth="yes"/>
      <point x="318" y="442"/>
      <point x="310" y="506"/>
      <point x="339" y="536" type="qcurve" smooth="yes"/>
      <point x="533" y="744" type="line"/>
      <point x="257" y="797" type="line" smooth="yes"/>
      <point x="216" y="805"/>
      <point x="183" y="861"/>
      <point x="197" y="906" type="qcurve" smooth="yes"/>
      <point x="211" y="951"/>
      <point x="270" y="977"/>
      <point x="308" y="960" type="qcurve" smooth="yes"/>
      <point x="564" y="839" type="line"/>
      <point x="528" y="1119" type="line" smooth="yes"/>
      <point x="523" y="1161"/>
      <point x="567" y="1209"/>
      <point x="614" y="1209" type="qcurve" smooth="yes"/>
      <point x="661" y="1209"/>
      <point x="705" y="1161"/>
      <point x="700" y="1119" type="qcurve" smooth="yes"/>
      <point x="664" y="839" type="line"/>
      <point x="920" y="960" type="line" smooth="yes"/>
      <point x="958" y="977"/>
      <point x="1017" y="951"/>
      <point x="1031" y="906" type="qcurve" smooth="yes"/>
      <point x="1045" y="861"/>
      <point x="1012" y="805"/>
      <point x="971" y="797" type="qcurve" smooth="yes"/>
      <point x="693" y="744" type="line"/>
      <point x="889" y="536" type="line" smooth="yes"/>
      <point x="918" y="506"/>
      <point x="910" y="442"/>
    </contour>
  </outline>
</glyph>
<glyph name="plus" format="2">
  <advance width="1228"/>
  <unicode hex="002B"/>
  <outline>
    <contour>
      <point x="546" y="650" type="line"/>
      <point x="546" y="963" type="line" smooth="yes"/>
      <point x="546" y="997"/>
      <point x="576" y="1026"/>
      <point x="614" y="1026" type="qcurve" smooth="yes"/>
      <point x="652" y="1026"/>
      <point x="682" y="997"/>
      <point x="682" y="963" type="qcurve" smooth="yes"/>
      <point x="682" y="650" type="line"/>
      <point x="995" y="650" type="line" smooth="yes"/>
      <point x="1029" y="650"/>
      <point x="1058" y="620"/>
      <point x="1058" y="582" type="qcurve" smooth="yes"/>
      <point x="1058" y="544"/>
      <point x="1029" y="514"/>
      <point x="995" y="514" type="qcurve" smooth="yes"/>
      <point x="682" y="514" type="line"/>
      <point x="682" y="201" type="line" smooth="yes"/>
      <point x="682" y="167"/>
      <point x="652" y="138"/>
      <point x="614" y="138" type="qcurve" smooth="yes"/>
      <point x="576" y="138"/>
      <point x="546" y="167"/>
      <point x="546" y="201" type="qcurve" smooth="yes"/>
      <point x="546" y="514" type="line"/>
      <point x="233" y="514" type="line" smooth="yes"/>
      <point x="199" y="514"/>
      <point x="170" y="544"/>
      <point x="170" y="582" type="qcurve" smooth="yes"/>
      <point x="170" y="620"/>
      <point x="199" y="650"/>
      <point x="233" y="650" type="qcurve" smooth="yes"/>
    </contour>
  </outline>
</glyph>
<glyph name="period" format="2">
  <advance width="1228"/>
  <unicode hex="002E"/>
  <outline>
    <contour>
      <point x="445" y="147" type="qcurve" smooth="yes"/>
      <point x="445" y="182"/>
      <point x="472" y="243"/>
      <point x="495.0" y="266.0" type="qcurve" smooth="yes" name="inserted"/>
      <point x="518" y="289"/>
      <point x="579" y="316"/>
      <point x="614" y="316" type="qcurve" smooth="yes"/>
      <point x="649" y="316"/>
      <point x="710" y="289"/>
      <point x="733.0" y="266.0" type="qcurve" smooth="yes" name="inserted"/>
      <point x="756" y="243"/>
      <point x="783" y="182"/>
      <point x="783" y="147" type="qcurve" smooth="yes"/>
      <point x="783" y="112"/>
      <point x="756" y="51"/>
      <point x="733.0" y="28.0" type="qcurve" smooth="yes" name="inserted"/>
      <point x="710" y="5"/>
      <point x="649" y="-22"/>
      <point x="614" y="-22" type="qcurve" smooth="yes"/>
      <point x="579" y="-22"/>
      <point x="518" y="5"/>
      <point x="495.0" y="28.0" type="qcurve" smooth="yes" name="inserted"/>
      <point x="472" y="51"/>
      <point x="445" y="112"/>
    </contour>
  </outline>
</glyph>
<glyph name="one" format="2">
  <advance width="1228"/>
  <unicode hex="0031"/>
  <outline>
    <contour>
      <point x="569" y="136" type="line"/>
      <point x="569" y="1032" type="line"/>
      <point x="321" y="942" type="line" smooth="yes"/>
      <point x="299" y="934"/>
      <point x="260" y="953"/>
      <point x="248" y="990" type="qcurve" smooth="yes"/>
      <point x="236" y="1027"/>
      <point x="254" y="1069"/>
      <point x="278" y="1077" type="qcurve" smooth="yes"/>
      <point x="643" y="1208" type="line" smooth="yes"/>
      <point x="675" y="1219"/>
      <point x="719" y="1184"/>
      <point x="719" y="1146" type="qcurve" smooth="yes"/>
      <point x="719" y="136" type="line"/>
      <point x="974" y="136" type="line" smooth="yes"/>
      <point x="1008" y="136"/>
      <point x="1037" y="106"/>
      <point x="1037" y="68" type="qcurve" smooth="yes"/>
      <point x="1037" y="30"/>
      <point x="1008" y="0"/>
      <point x="974" y="0" type="qcurve" smooth="yes"/>
      <point x="300" y="0" type="line" smooth="yes"/>
      <point x="266" y="0"/>
      <point x="237" y="30"/>
      <point x="237" y="68" type="qcurve" smooth="yes"/>
      <point x="237" y="106"/>
      <point x="266" y="136"/>
      <point x="300" y="136" type="qcurve" smooth="yes"/>
    </contour>
  </outline>
</glyph>
<glyph name="two" format="2">
  <advance width="1228"/>
  <unicode hex="0032"/>
  <outline>
    <contour>
      <point x="250" y="0" type="line" smooth="yes"/>
      <point x="216" y="0"/>
      <point x="187" y="30"/>
      <point x="187" y="68" type="qcurve" smooth="yes"/>
      <point x="187.0" y="86.5" name="inserted"/>
      <point x="194.5" y="113.5"/>
      <point x="202" y="122" type="qcurve"/>
      <point x="642" y="568" type="line" smooth="yes"/>
      <point x="686" y="613"/>
      <point x="749" y="687"/>
      <point x="769.5" y="721.0" type="qcurve" smooth="yes" name="inserted"/>
      <point x="790" y="755"/>
      <point x="809" y="821"/>
      <point x="809" y="859" type="qcurve" smooth="yes"/>
      <point x="809" y="951"/>
      <point x="693" y="1061"/>
      <point x="581" y="1061" type="qcurve" smooth="yes"/>
      <point x="520" y="1061"/>
      <point x="417" y="1030"/>
      <point x="374" y="1005" type="qcurve"/>
      <point x="374" y="895" type="line" smooth="yes"/>
      <point x="374" y="860"/>
      <point x="341" y="830"/>
      <point x="299" y="830" type="qcurve" smooth="yes"/>
      <point x="257" y="830"/>
      <point x="224" y="860"/>
      <point x="224" y="895" type="qcurve" smooth="yes"/>
      <point x="224" y="1042" type="line" smooth="yes"/>
      <point x="224.0" y="1061.5" name="inserted"/>
      <point x="235.5" y="1089.0"/>
      <point x="247" y="1097" type="qcurve" smooth="yes"/>
      <point x="319" y="1149"/>
      <point x="487" y="1209"/>
      <point x="580" y="1209" type="qcurve" smooth="yes"/>
      <point x="667" y="1209"/>
      <point x="810" y="1162"/>
      <point x="861.0" y="1117.0" type="qcurve" smooth="yes" name="inserted"/>
      <point x="912" y="1072"/>
      <point x="967" y="942"/>
      <point x="967" y="859" type="qcurve" smooth="yes"/>
      <point x="967" y="805"/>
      <point x="938" y="708"/>
      <point x="911.0" y="662.5" type="qcurve" smooth="yes" name="inserted"/>
      <point x="884" y="617"/>
      <point x="807" y="526"/>
      <point x="759" y="477" type="qcurve" smooth="yes"/>
      <point x="423" y="136" type="line"/>
      <point x="857" y="136" type="line"/>
      <point x="857" y="282" type="line" smooth="yes"/>
      <point x="857" y="317"/>
      <point x="890" y="347"/>
      <point x="932" y="347" type="qcurve" smooth="yes"/>
      <point x="974" y="347"/>
      <point x="1007" y="317"/>
      <point x="1007" y="282" type="qcurve" smooth="yes"/>
      <point x="1007" y="68" type="line" smooth="yes"/>
      <point x="1007" y="30"/>
      <point x="978" y="0"/>
      <point x="944" y="0" type="qcurve" smooth="yes"/>
    </contour>
  </outline>
</glyph>
<glyph name="four" format="2">
  <advance width="1228"/>
  <unicode hex="0034"/>
  <outline>
    <contour>
      <point x="688" y="136" type="line"/>
      <point x="688" y="360" type="line"/>
      <point x="210" y="360" type="line" smooth="yes"/>
      <point x="176" y="360"/>
      <point x="147" y="390"/>
      <point x="147" y="428" type="qcurve" smooth="yes"/>
      <point x="147.0" y="444.5" name="inserted"/>
      <point x="152.0" y="468.0"/>
      <point x="157" y="475" type="qcurve" smooth="yes"/>
      <point x="641" y="1148" type="line" smooth="yes"/>
      <point x="662" y="1178"/>
      <point x="712" y="1209"/>
      <point x="751" y="1209" type="qcurve" smooth="yes"/>
      <point x="798" y="1209"/>
      <point x="838" y="1166"/>
      <point x="838" y="1131" type="qcurve" smooth="yes"/>
      <point x="838" y="496" type="line"/>
      <point x="1000" y="496" type="line" smooth="yes"/>
      <point x="1034" y="496"/>
      <point x="1063" y="466"/>
      <point x="1063" y="428" type="qcurve" smooth="yes"/>
      <point x="1063" y="390"/>
      <point x="1034" y="360"/>
      <point x="1000" y="360" type="qcurve" smooth="yes"/>
      <point x="838" y="360" type="line"/>
      <point x="838" y="136" type="line"/>
      <point x="970" y="136" type="line" smooth="yes"/>
      <point x="1004" y="136"/>
      <point x="1033" y="106"/>
      <point x="1033" y="68" type="qcurve" smooth="yes"/>
      <point x="1033" y="30"/>
      <point x="1004" y="0"/>
      <point x="970" y="0" type="qcurve" smooth="yes"/>
      <point x="540" y="0" type="line" smooth="yes"/>
      <point x="506" y="0"/>
      <point x="477" y="30"/>
      <point x="477" y="68" type="qcurve" smooth="yes"/>
      <point x="477" y="106"/>
      <point x="506" y="136"/>
      <point x="540" y="136" type="qcurve" smooth="yes"/>
    </contour>
    <contour>
      <point x="696" y="992" type="line"/>
      <point x="346" y="496" type="line"/>
      <point x="688" y="496" type="line"/>
    </contour>
  </outline>
</glyph>
<glyph name="six" format="2">
  <advance width="1228"/>
  <unicode hex="0036"/>
  <outline>
    <contour>
      <point x="372" y="368" type="qcurve" smooth="yes"/>
      <point x="372" y="315"/>
      <point x="408" y="226"/>
      <point x="441.0" y="194.0" type="qcurve" smooth="yes" name="inserted"/>
      <point x="474" y="162"/>
      <point x="568" y="126"/>
      <point x="626" y="126" type="qcurve" smooth="yes"/>
      <point x="683" y="126"/>
      <point x="776" y="158"/>
      <point x="809.0" y="188.0" type="qcurve" smooth="yes" name="inserted"/>
      <point x="842" y="218"/>
      <point x="878" y="302"/>
      <point x="878" y="353" type="qcurve" smooth="yes"/>
      <point x="878" y="405"/>
      <point x="843" y="490"/>
      <point x="810.5" y="520.0" type="qcurve" smooth="yes" name="inserted"/>
      <point x="778" y="550"/>
      <point x="685" y="583"/>
      <point x="626" y="583" type="qcurve" smooth="yes"/>
      <point x="570" y="583"/>
      <point x="477" y="552"/>
      <point x="443.5" y="523.5" type="qcurve" smooth="yes" name="inserted"/>
      <point x="410" y="495"/>
      <point x="372" y="416"/>
    </contour>
    <contour>
      <point x="938" y="1062" type="qcurve" smooth="yes"/>
      <point x="800" y="1055"/>
      <point x="595" y="982"/>
      <point x="524.0" y="920.5" type="qcurve" smooth="yes" name="inserted"/>
      <point x="453" y="859"/>
      <point x="371" y="691"/>
      <point x="358" y="589" type="qcurve"/>
      <point x="411" y="658"/>
      <point x="562" y="731"/>
      <point x="648" y="731" type="qcurve" smooth="yes"/>
      <point x="731" y="731"/>
      <point x="873" y="677"/>
      <point x="925.0" y="627.5" type="qcurve" smooth="yes" name="inserted"/>
      <point x="977" y="578"/>
      <point x="1036" y="438"/>
      <point x="1036" y="353" type="qcurve" smooth="yes"/>
      <point x="1036" y="272"/>
      <point x="977" y="134"/>
      <point x="923.5" y="84.0" type="qcurve" smooth="yes" name="inserted"/>
      <point x="870" y="34"/>
      <point x="719" y="-22"/>
      <point x="626" y="-22" type="qcurve" smooth="yes"/>
      <point x="573" y="-22"/>
      <point x="472" y="2"/>
      <point x="427.0" y="26.5" type="qcurve" smooth="yes" name="inserted"/>
      <point x="382" y="51"/>
      <point x="306" y="124"/>
      <point x="278" y="173" type="qcurve" smooth="yes"/>
      <point x="240" y="238"/>
      <point x="201" y="403"/>
      <point x="201" y="512" type="qcurve" smooth="yes"/>
      <point x="201" y="592"/>
      <point x="234" y="755"/>
      <point x="270.0" y="830.5" type="qcurve" smooth="yes" name="inserted"/>
      <point x="306" y="906"/>
      <point x="419" y="1039"/>
      <point x="498.5" y="1089.5" type="qcurve" smooth="yes" name="inserted"/>
      <point x="578" y="1140"/>
      <point x="786" y="1203"/>
      <point x="917" y="1209" type="qcurve" smooth="yes"/>
      <point x="939" y="1210"/>
      <point x="970" y="1183"/>
      <point x="974" y="1142" type="qcurve" smooth="yes"/>
      <point x="978" y="1097"/>
      <point x="958" y="1063"/>
    </contour>
  </outline>
</glyph>
<glyph name="question" format="2">
  <advance width="1228"/>
  <unicode hex="003F"/>
  <outline>
    <contour>
      <point x="254" y="1062" type="line" smooth="yes"/>
      <point x="254.0" y="1082.5" name="inserted"/>
      <point x="266.5" y="1110.5"/>
      <point x="279" y="1118" type="qcurve" smooth="yes"/>
      <point x="355" y="1164"/>
      <point x="526" y="1209"/>
      <point x="618" y="1209" type="qcurve" smooth="yes"/>
      <point x="701" y="1209"/>
      <point x="832" y="1163"/>
      <point x="877.0" y="1122.0" type="qcurve" smooth="yes" name="inserted"/>
      <point x="922" y="1081"/>
      <point x="970" y="965"/>
      <point x="970" y="896" type="qcurve" smooth="yes"/>
      <point x="970" y="829"/>
      <point x="929" y="728"/>
      <point x="889.0" y="688.0" type="qcurve" smooth="yes" name="inserted"/>
      <point x="849" y="648"/>
      <point x="730" y="582"/>
      <point x="653" y="551" type="qcurve"/>
      <point x="643" y="410" type="line" smooth="yes"/>
      <point x="641" y="387"/>
      <point x="606" y="359"/>
      <point x="574" y="359" type="qcurve" smooth="yes"/>
      <point x="542" y="359"/>
      <point x="507" y="387"/>
      <point x="505" y="410" type="qcurve" smooth="yes"/>
      <point x="495" y="605" type="line" smooth="yes"/>
      <point x="494" y="625"/>
      <point x="508" y="649"/>
      <point x="525" y="656" type="qcurve" smooth="yes"/>
      <point x="594" y="684" type="line" smooth="yes"/>
      <point x="651" y="707"/>
      <point x="733" y="751"/>
      <point x="760.0" y="775.5" type="qcurve" smooth="yes" name="inserted"/>
      <point x="787" y="800"/>
      <point x="812" y="858"/>
      <point x="812" y="896" type="qcurve" smooth="yes"/>
      <point x="812" y="969"/>
      <point x="713" y="1061"/>
      <point x="619" y="1061" type="qcurve" smooth="yes"/>
      <point x="558" y="1061"/>
      <point x="451" y="1044"/>
      <point x="404" y="1024" type="qcurve"/>
      <point x="404" y="935" type="line" smooth="yes"/>
      <point x="404" y="900"/>
      <point x="371" y="870"/>
      <point x="329" y="870" type="qcurve" smooth="yes"/>
      <point x="287" y="870"/>
      <point x="254" y="900"/>
      <point x="254" y="935" type="qcurve" smooth="yes"/>
    </contour>
    <contour>
      <point x="436" y="116" type="qcurve" smooth="yes"/>
      <point x="436" y="144"/>
      <point x="458" y="195"/>
      <point x="476.5" y="213.5" type="qcurve" smooth="yes" name="inserted"/>
      <point x="495" y="232"/>
      <point x="545" y="254"/>
      <point x="574" y="254" type="qcurve" smooth="yes"/>
      <point x="602" y="254"/>
      <point x="653" y="232"/>
      <point x="671.5" y="213.5" type="qcurve" smooth="yes" name="inserted"/>
      <point x="690" y="195"/>
      <point x="712" y="144"/>
      <point x="712" y="116" type="qcurve" smooth="yes"/>
      <point x="712" y="87"/>
      <point x="690" y="37"/>
      <point x="671.5" y="18.5" type="qcurve" smooth="yes" name="inserted"/>
      <point x="653" y="0"/>
      <point x="602" y="-22"/>
      <point x="574" y="-22" type="qcurve" smooth="yes"/>
      <point x="545" y="-22"/>
      <point x="495" y="0"/>
      <point x="476.5" y="18.5" type="qcurve" smooth="yes" name="inserted"/>
      <point x="458" y="37"/>
      <point x="436" y="87"/>
    </contour>
  </outline>
</glyph>
<glyph name="L" format="2">
  <advance width="1228"/>
  <unicode hex="004C"/>
  <outline>
    <contour>
      <point x="305" y="1051" type="line"/>
      <point x="143" y="1051" type="line" smooth="yes"/>
      <point x="109" y="1051"/>
      <point x="80" y="1081"/>
      <point x="80" y="1119" type="qcurve" smooth="yes"/>
      <point x="80" y="1157"/>
      <point x="109" y="1187"/>
      <point x="143" y="1187" type="qcurve" smooth="yes"/>
      <point x="697" y="1187" type="line" smooth="yes"/>
      <point x="731" y="1187"/>
      <point x="760" y="1157"/>
      <point x="760" y="1119" type="qcurve" smooth="yes"/>
      <point x="760" y="1081"/>
      <point x="731" y="1051"/>
      <point x="697" y="1051" type="qcurve" smooth="yes"/>
      <point x="455" y="1051" type="line"/>
      <point x="455" y="136" type="line"/>
      <point x="950" y="136" type="line"/>
      <point x="950" y="465" type="line" smooth="yes"/>
      <point x="950" y="500"/>
      <point x="983" y="530"/>
      <point x="1025" y="530" type="qcurve" smooth="yes"/>
      <point x="1067" y="530"/>
      <point x="1100" y="500"/>
      <point x="1100" y="465" type="qcurve" smooth="yes"/>
      <point x="1100" y="68" type="line" smooth="yes"/>
      <point x="1100" y="30"/>
      <point x="1071" y="0"/>
      <point x="1037" y="0" type="qcurve" smooth="yes"/>
      <point x="143" y="0" type="line" smooth="yes"/>
      <point x="109" y="0"/>
      <point x="80" y="30"/>
      <point x="80" y="68" type="qcurve" smooth="yes"/>
      <point x="80" y="106"/>
      <point x="109" y="136"/>
      <point x="143" y="136" type="qcurve" smooth="yes"/>
      <point x="305" y="136" type="line"/>
    </contour>
  </outline>
</glyph>
<glyph name="Q" format="2">
  <advance width="1228"/>
  <unicode hex="0051"/>
  <outline>
    <contour>
      <point x="246" y="618" type="qcurve" smooth="yes"/>
      <point x="246" y="514"/>
      <point x="299" y="350"/>
      <point x="347.0" y="293.0" type="qcurve" smooth="yes" name="inserted"/>
      <point x="395" y="236"/>
      <point x="531" y="176"/>
      <point x="614" y="176" type="qcurve" smooth="yes"/>
      <point x="697" y="176"/>
      <point x="833" y="236"/>
      <point x="881.0" y="293.0" type="qcurve" smooth="yes" name="inserted"/>
      <point x="929" y="350"/>
      <point x="982" y="514"/>
      <point x="982" y="618" type="qcurve" smooth="yes"/>
      <point x="982" y="722"/>
      <point x="929" y="887"/>
      <point x="881.0" y="944.0" type="qcurve" smooth="yes" name="inserted"/>
      <point x="833" y="1001"/>
      <point x="697" y="1061"/>
      <point x="614" y="1061" type="qcurve" smooth="yes"/>
      <point x="531" y="1061"/>
      <point x="395" y="1001"/>
      <point x="347.0" y="944.0" type="qcurve" smooth="yes" name="inserted"/>
      <point x="299" y="887"/>
      <point x="246" y="722"/>
    </contour>
    <contour>
      <point x="417" y="62" type="line"/>
      <point x="341" y="91"/>
      <point x="219" y="193"/>
      <point x="176.5" y="264.0" type="qcurve" smooth="yes" name="inserted"/>
      <point x="134" y="335"/>
      <point x="88" y="513"/>
      <point x="88" y="618" type="qcurve" smooth="yes"/>
      <point x="88" y="753"/>
      <point x="164" y="971"/>
      <point x="233.0" y="1048.5" type="qcurve" smooth="yes" name="inserted"/>
      <point x="302" y="1126"/>
      <point x="496" y="1209"/>
      <point x="614" y="1209" type="qcurve" smooth="yes"/>
      <point x="732" y="1209"/>
      <point x="926" y="1126"/>
      <point x="995.0" y="1048.5" type="qcurve" smooth="yes" name="inserted"/>
      <point x="1064" y="971"/>
      <point x="1140" y="753"/>
      <point x="1140" y="618" type="qcurve" smooth="yes"/>
      <point x="1140" y="483"/>
      <point x="1064" y="265"/>
      <point x="995.0" y="188.0" type="qcurve" smooth="yes" name="inserted"/>
      <point x="926" y="111"/>
      <point x="732" y="28"/>
      <point x="614" y="28" type="qcurve" smooth="yes"/>
      <point x="599" y="28"/>
      <point x="571" y="29"/>
      <point x="562" y="30" type="qcurve"/>
      <point x="433" y="-105" type="line"/>
      <point x="479" y="-87"/>
      <point x="558" y="-73"/>
      <point x="593" y="-73" type="qcurve" smooth="yes"/>
      <point x="628" y="-73"/>
      <point x="690" y="-83"/>
      <point x="719.5" y="-89.0" type="qcurve" smooth="yes" name="inserted"/>
      <point x="749" y="-95"/>
      <point x="804" y="-105"/>
      <point x="833" y="-105" type="qcurve" smooth="yes"/>
      <point x="870" y="-105"/>
      <point x="948" y="-81"/>
      <point x="993" y="-48" type="qcurve" smooth="yes"/>
      <point x="1010" y="-35"/>
      <point x="1053" y="-58"/>
      <point x="1070" y="-86" type="qcurve" smooth="yes"/>
      <point x="1086" y="-112"/>
      <point x="1088" y="-162"/>
      <point x="1065" y="-179" type="qcurve" smooth="yes"/>
      <point x="1003" y="-225"/>
      <point x="901" y="-258"/>
      <point x="853" y="-258" type="qcurve" smooth="yes"/>
      <point x="818" y="-258"/>
      <point x="751" y="-246"/>
      <point x="715.5" y="-239.0" type="qcurve" smooth="yes" name="inserted"/>
      <point x="680" y="-232"/>
      <point x="605" y="-220"/>
      <point x="562" y="-220" type="qcurve" smooth="yes"/>
      <point x="517" y="-220"/>
      <point x="403" y="-241"/>
      <point x="337" y="-269" type="qcurve" smooth="yes"/>
      <point x="317" y="-277"/>
      <point x="274" y="-252"/>
      <point x="254" y="-226" type="qcurve" smooth="yes"/>
      <point x="234" y="-200"/>
      <point x="224" y="-156"/>
      <point x="237" y="-142" type="qcurve" smooth="yes"/>
    </contour>
  </outline>
</glyph>
<glyph name="V" format="2">
  <advance width="1228"/>
  <unicode hex="0056"/>
  <outline>
    <contour>
      <point x="73" y="1051" type="line" smooth="yes"/>
      <point x="39" y="1051"/>
      <point x="10" y="1081"/>
      <point x="10" y="1119" type="qcurve" smooth="yes"/>
      <point x="10" y="1157"/>
      <point x="39" y="1187"/>
      <point x="73" y="1187" type="qcurve" smooth="yes"/>
      <point x="447" y="1187" type="line" smooth="yes"/>
      <point x="481" y="1187"/>
      <point x="510" y="1157"/>
      <point x="510" y="1119" type="qcurve" smooth="yes"/>
      <point x="510" y="1081"/>
      <point x="481" y="1051"/>
      <point x="447" y="1051" type="qcurve" smooth="yes"/>
      <point x="306" y="1051" type="line"/>
      <point x="612" y="167" type="line"/>
      <point x="921" y="1051" type="line"/>
      <point x="821" y="1051" type="line" smooth="yes"/>
      <point x="787" y="1051"/>
      <point x="758" y="1081"/>
      <point x="758" y="1119" type="qcurve" smooth="yes"/>
      <point x="758" y="1157"/>
      <point x="787" y="1187"/>
      <point x="821" y="1187" type="qcurve" smooth="yes"/>
      <point x="1155" y="1187" type="line" smooth="yes"/>
      <point x="1189" y="1187"/>
      <point x="1218" y="1157"/>
      <point x="1218" y="1119" type="qcurve" smooth="yes"/>
      <point x="1218" y="1081"/>
      <point x="1189" y="1051"/>
      <point x="1155" y="1051" type="qcurve" smooth="yes"/>
      <point x="1078" y="1051" type="line"/>
      <point x="719" y="43" type="line" smooth="yes"/>
      <point x="706" y="8"/>
      <point x="654" y="-22"/>
      <point x="611" y="-22" type="qcurve" smooth="yes"/>
      <point x="568" y="-22"/>
      <point x="517" y="8"/>
      <point x="505" y="43" type="qcurve" smooth="yes"/>
      <point x="149" y="1051" type="line"/>
    </contour>
  </outline>
</glyph>
<glyph name="Y" format="2">
  <advance width="1228"/>
  <unicode hex="0059"/>
  <outline>
    <contour>
      <point x="539" y="492" type="line"/>
      <point x="193" y="1051" type="line"/>
      <point x="123" y="1051" type="line" smooth="yes"/>
      <point x="89" y="1051"/>
      <point x="60" y="1081"/>
      <point x="60" y="1119" type="qcurve" smooth="yes"/>
      <point x="60" y="1157"/>
      <point x="89" y="1187"/>
      <point x="123" y="1187" type="qcurve" smooth="yes"/>
      <point x="457" y="1187" type="line" smooth="yes"/>
      <point x="491" y="1187"/>
      <point x="520" y="1157"/>
      <point x="520" y="1119" type="qcurve" smooth="yes"/>
      <point x="520" y="1081"/>
      <point x="491" y="1051"/>
      <point x="457" y="1051" type="qcurve" smooth="yes"/>
      <point x="364" y="1051" type="line"/>
      <point x="614" y="642" type="line"/>
      <point x="866" y="1051" type="line"/>
      <point x="801" y="1051" type="line" smooth="yes"/>
      <point x="767" y="1051"/>
      <point x="738" y="1081"/>
      <point x="738" y="1119" type="qcurve" smooth="yes"/>
      <point x="738" y="1157"/>
      <point x="767" y="1187"/>
      <point x="801" y="1187" type="qcurve" smooth="yes"/>
      <point x="1105" y="1187" type="line" smooth="yes"/>
      <point x="1139" y="1187"/>
      <point x="1168" y="1157"/>
      <point x="1168" y="1119" type="qcurve" smooth="yes"/>
      <point x="1168" y="1081"/>
      <point x="1139" y="1051"/>
      <point x="1105" y="1051" type="qcurve" smooth="yes"/>
      <point x="1037" y="1051" type="line"/>
      <point x="689" y="492" type="line"/>
      <point x="689" y="136" type="line"/>
      <point x="915" y="136" type="line" smooth="yes"/>
      <point x="949" y="136"/>
      <point x="978" y="106"/>
      <point x="978" y="68" type="qcurve" smooth="yes"/>
      <point x="978" y="30"/>
      <point x="949" y="0"/>
      <point x="915" y="0" type="qcurve" smooth="yes"/>
      <point x="313" y="0" type="line" smooth="yes"/>
      <point x="279" y="0"/>
      <point x="250" y="30"/>
      <point x="250" y="68" type="qcurve" smooth="yes"/>
      <point x="250" y="106"/>
      <point x="279" y="136"/>
      <point x="313" y="136" type="qcurve" smooth="yes"/>
      <point x="539" y="136" type="line"/>
    </contour>
  </outline>
</glyph>
<glyph name="Z" format="2">
  <advance width="1228"/>
  <unicode hex="005A"/>
  <outline>
    <contour>
      <point x="909" y="136" type="line"/>
      <point x="909" y="405" type="line" smooth="yes"/>
      <point x="909" y="440"/>
      <point x="942" y="470"/>
      <point x="984" y="470" type="qcurve" smooth="yes"/>
      <point x="1026" y="470"/>
      <point x="1059" y="440"/>
      <point x="1059" y="405" type="qcurve" smooth="yes"/>
      <point x="1059" y="68" type="line" smooth="yes"/>
      <point x="1059" y="30"/>
      <point x="1030" y="0"/>
      <point x="996" y="0" type="qcurve" smooth="yes"/>
      <point x="230" y="0" type="line" smooth="yes"/>
      <point x="196" y="0"/>
      <point x="167" y="30"/>
      <point x="167" y="68" type="qcurve" smooth="yes"/>
      <point x="167" y="82"/>
      <point x="175" y="102"/>
      <point x="181" y="111" type="qcurve" smooth="yes"/>
      <point x="840" y="1051" type="line"/>
      <point x="338" y="1051" type="line"/>
      <point x="338" y="802" type="line" smooth="yes"/>
      <point x="338" y="767"/>
      <point x="305" y="737"/>
      <point x="263" y="737" type="qcurve" smooth="yes"/>
      <point x="221" y="737"/>
      <point x="188" y="767"/>
      <point x="188" y="802" type="qcurve" smooth="yes"/>
      <point x="188" y="1119" type="line" smooth="yes"/>
      <point x="188" y="1157"/>
      <point x="217" y="1187"/>
      <point x="251" y="1187" type="qcurve" smooth="yes"/>
      <point x="987" y="1187" type="line" smooth="yes"/>
      <point x="1021" y="1187"/>
      <point x="1050" y="1157"/>
      <point x="1050" y="1119" type="qcurve" smooth="yes"/>
      <point x="1050.0" y="1106.5" name="inserted"/>
      <point x="1045.0" y="1087.0"/>
      <point x="1040" y="1080" type="qcurve" smooth="yes"/>
      <point x="377" y="136" type="line"/>
    </contour>
  </outline>
</glyph>
<glyph name="asciicircum" format="2">
  <advance width="1228"/>
  <unicode hex="005E"/>
  <outline>
    <contour>
      <point x="614" y="1007" type="line"/>
      <point x="377" y="527" type="line" smooth="yes"/>
      <point x="367" y="507"/>
      <point x="309" y="499"/>
      <point x="282" y="509" type="qcurve"/>
      <point x="269" y="513"/>
      <point x="247" y="528"/>
      <point x="240.0" y="537.0" type="qcurve" smooth="yes" name="inserted"/>
      <point x="233" y="546"/>
      <point x="231" y="568"/>
      <point x="238" y="581" type="qcurve" smooth="yes"/>
      <point x="546" y="1172" type="line" smooth="yes"/>
      <point x="556" y="1190"/>
      <point x="585" y="1209"/>
      <point x="614" y="1209" type="qcurve" smooth="yes"/>
      <point x="643" y="1209"/>
      <point x="672" y="1190"/>
      <point x="682" y="1172" type="qcurve" smooth="yes"/>
      <point x="990" y="581" type="line" smooth="yes"/>
      <point x="997" y="568"/>
      <point x="995" y="546"/>
      <point x="988.0" y="537.0" type="qcurve" smooth="yes" name="inserted"/>
      <point x="981" y="528"/>
      <point x="959" y="513"/>
      <point x="946" y="509" type="qcurve"/>
      <point x="919" y="499"/>
      <point x="861" y="507"/>
      <point x="851" y="527" type="qcurve" smooth="yes"/>
    </contour>
  </outline>
</glyph>
<glyph name="underscore" format="2">
  <advance width="1228"/>
  <unicode hex="005F"/>
  <outline>
    <contour>
      <point x="-5" y="-393" type="line" smooth="yes"/>
      <point x="-16" y="-393"/>
      <point x="-28" y="-370"/>
      <point x="-28" y="-325" type="qcurve" smooth="yes"/>
      <point x="-28" y="-280"/>
      <point x="-16" y="-257"/>
      <point x="-5" y="-257" type="qcurve" smooth="yes"/>
      <point x="1233" y="-257" type="line" smooth="yes"/>
      <point x="1244" y="-257"/>
      <point x="1256" y="-280"/>
      <point x="1256" y="-325" type="qcurve" smooth="yes"/>
      <point x="1256" y="-370"/>
      <point x="1244" y="-393"/>
      <point x="1233" y="-393" type="qcurve" smooth="yes"/>
    </contour>
  </outline>
</glyph>
<glyph name="f" format="2">
  <advance width="1228"/>
  <unicode hex="0066"/>
  <outline>
    <contour>
      <point x="448" y="844" type="line"/>
      <point x="448" y="967" type="line" smooth="yes"/>
      <point x="448" y="1049"/>
      <point x="495" y="1179"/>
      <point x="540.0" y="1224.0" type="qcurve" smooth="yes" name="inserted"/>
      <point x="585" y="1269"/>
      <point x="716" y="1317"/>
      <point x="800" y="1317" type="qcurve" smooth="yes"/>
      <point x="871" y="1317"/>
      <point x="1006" y="1289"/>
      <point x="1066" y="1266" type="qcurve" smooth="yes"/>
      <point x="1093" y="1255"/>
      <point x="1120" y="1212"/>
      <point x="1111" y="1174" type="qcurve" smooth="yes"/>
      <point x="1101" y="1133"/>
      <point x="1063" y="1112"/>
      <point x="1037" y="1122" type="qcurve" smooth="yes"/>
      <point x="978" y="1145"/>
      <point x="860" y="1171"/>
      <point x="800" y="1171" type="qcurve" smooth="yes"/>
      <point x="694" y="1171"/>
      <point x="598" y="1057"/>
      <point x="598" y="954" type="qcurve" smooth="yes"/>
      <point x="598" y="844" type="line"/>
      <point x="944" y="844" type="line" smooth="yes"/>
      <point x="978" y="844"/>
      <point x="1007" y="814"/>
      <point x="1007" y="776" type="qcurve" smooth="yes"/>
      <point x="1007" y="738"/>
      <point x="978" y="708"/>
      <point x="944" y="708" type="qcurve" smooth="yes"/>
      <point x="598" y="708" type="line"/>
      <point x="598" y="136" type="line"/>
      <point x="944" y="136" type="line" smooth="yes"/>
      <point x="978" y="136"/>
      <point x="1007" y="106"/>
      <point x="1007" y="68" type="qcurve" smooth="yes"/>
      <point x="1007" y="30"/>
      <point x="978" y="0"/>
      <point x="944" y="0" type="qcurve" smooth="yes"/>
      <point x="250" y="0" type="line" smooth="yes"/>
      <point x="216" y="0"/>
      <point x="187" y="30"/>
      <point x="187" y="68" type="qcurve" smooth="yes"/>
      <point x="187" y="106"/>
      <point x="216" y="136"/>
      <point x="250" y="136" type="qcurve" smooth="yes"/>
      <point x="448" y="136" type="line"/>
      <point x="448" y="708" type="line"/>
      <point x="250" y="708" type="line" smooth="yes"/>
      <point x="216" y="708"/>
      <point x="187" y="738"/>
      <point x="187" y="776" type="qcurve" smooth="yes"/>
      <point x="187" y="814"/>
      <point x="216" y="844"/>
      <point x="250" y="844" type="qcurve" smooth="yes"/>
    </contour>
  </outline>
</glyph>
<glyph name="g" format="2">
  <advance width="1228"/>
  <unicode hex="0067"/>
  <outline>
    <contour>
      <point x="876" y="487" type="qcurve" smooth="yes"/>
      <point x="876" y="561"/>
      <point x="830" y="677"/>
      <point x="789.0" y="716.5" type="qcurve" smooth="yes" name="inserted"/>
      <point x="748" y="756"/>
      <point x="635" y="798"/>
      <point x="569" y="798" type="qcurve" smooth="yes"/>
      <point x="501" y="798"/>
      <point x="395" y="752"/>
      <point x="359.0" y="710.5" type="qcurve" smooth="yes" name="inserted"/>
      <point x="323" y="669"/>
      <point x="285" y="555"/>
      <point x="285" y="487" type="qcurve" smooth="yes"/>
      <point x="285" y="419"/>
      <point x="323" y="305"/>
      <point x="359.0" y="263.5" type="qcurve" smooth="yes" name="inserted"/>
      <point x="395" y="222"/>
      <point x="501" y="176"/>
      <point x="569" y="176" type="qcurve" smooth="yes"/>
      <point x="635" y="176"/>
      <point x="748" y="218"/>
      <point x="789.0" y="257.5" type="qcurve" smooth="yes" name="inserted"/>
      <point x="830" y="297"/>
      <point x="876" y="413"/>
    </contour>
    <contour>
      <point x="319" y="-211" type="qcurve" smooth="yes"/>
      <point x="388" y="-240"/>
      <point x="540" y="-267"/>
      <point x="613" y="-267" type="qcurve" smooth="yes"/>
      <point x="680" y="-267"/>
      <point x="779" y="-232"/>
      <point x="811.5" y="-199.5" type="qcurve" smooth="yes" name="inserted"/>
      <point x="844" y="-167"/>
      <point x="876" y="-77"/>
      <point x="876" y="-22" type="qcurve" smooth="yes"/>
      <point x="876" y="184" type="line"/>
      <point x="816" y="109"/>
      <point x="659" y="28"/>
      <point x="559" y="28" type="qcurve" smooth="yes"/>
      <point x="466" y="28"/>
      <point x="308" y="91"/>
      <point x="250.5" y="150.0" type="qcurve" smooth="yes" name="inserted"/>
      <point x="193" y="209"/>
      <point x="127" y="379"/>
      <point x="127" y="487" type="qcurve" smooth="yes"/>
      <point x="127" y="595"/>
      <point x="193" y="765"/>
      <point x="250.5" y="824.0" type="qcurve" smooth="yes" name="inserted"/>
      <point x="308" y="883"/>
      <point x="466" y="946"/>
      <point x="559" y="946" type="qcurve" smooth="yes"/>
      <point x="659" y="946"/>
      <point x="824" y="857"/>
      <point x="886" y="776" type="qcurve"/>
      <point x="886" y="856" type="line" smooth="yes"/>
      <point x="886" y="894"/>
      <point x="915" y="924"/>
      <point x="949" y="924" type="qcurve" smooth="yes"/>
      <point x="1108" y="924" type="line" smooth="yes"/>
      <point x="1142" y="924"/>
      <point x="1171" y="894"/>
      <point x="1171" y="856" type="qcurve" smooth="yes"/>
      <point x="1171" y="818"/>
      <point x="1142" y="788"/>
      <point x="1108" y="788" type="qcurve" smooth="yes"/>
      <point x="1026" y="788" type="line"/>
      <point x="1026" y="-35" type="line" smooth="yes"/>
      <point x="1026" y="-125"/>
      <point x="971" y="-266"/>
      <point x="918.0" y="-314.5" type="qcurve" smooth="yes" name="inserted"/>
      <point x="865" y="-363"/>
      <point x="711" y="-415"/>
      <point x="613" y="-415" type="qcurve" smooth="yes"/>
      <point x="526" y="-415"/>
      <point x="350" y="-385"/>
      <point x="271" y="-355" type="qcurve" smooth="yes"/>
      <point x="244" y="-344"/>
      <point x="227" y="-300"/>
      <point x="240" y="-262" type="qcurve" smooth="yes"/>
      <point x="253" y="-224"/>
      <point x="294" y="-200"/>
    </contour>
  </outline>
</glyph>
<glyph name="o" format="2">
  <advance width="1228"/>
  <unicode hex="006F"/>
  <outline>
    <contour>
      <point x="120" y="462" type="qcurve" smooth="yes"/>
      <point x="120" y="568"/>
      <point x="195" y="745"/>
      <point x="261.0" y="809.5" type="qcurve" smooth="yes" name="inserted"/>
      <point x="327" y="874"/>
      <point x="508" y="946"/>
      <point x="614" y="946" type="qcurve" smooth="yes"/>
      <point x="720" y="946"/>
      <point x="901" y="874"/>
      <point x="967.0" y="809.5" type="qcurve" smooth="yes" name="inserted"/>
      <point x="1033" y="745"/>
      <point x="1108" y="568"/>
      <point x="1108" y="462" type="qcurve" smooth="yes"/>
      <point x="1108" y="356"/>
      <point x="1033" y="179"/>
      <point x="967.0" y="114.5" type="qcurve" smooth="yes" name="inserted"/>
      <point x="901" y="50"/>
      <point x="720" y="-22"/>
      <point x="614" y="-22" type="qcurve" smooth="yes"/>
      <point x="508" y="-22"/>
      <point x="327" y="50"/>
      <point x="261.0" y="114.5" type="qcurve" smooth="yes" name="inserted"/>
      <point x="195" y="179"/>
      <point x="120" y="356"/>
    </contour>
    <contour>
      <point x="278" y="462" type="qcurve" smooth="yes"/>
      <point x="278" y="389"/>
      <point x="327" y="266"/>
      <point x="371.0" y="221.0" type="qcurve" smooth="yes" name="inserted"/>
      <point x="415" y="176"/>
      <point x="539" y="126"/>
      <point x="614" y="126" type="qcurve" smooth="yes"/>
      <point x="689" y="126"/>
      <point x="813" y="176"/>
      <point x="857.0" y="221.0" type="qcurve" smooth="yes" name="inserted"/>
      <point x="901" y="266"/>
      <point x="950" y="389"/>
      <point x="950" y="462" type="qcurve" smooth="yes"/>
      <point x="950" y="535"/>
      <point x="901" y="658"/>
      <point x="857.0" y="703.0" type="qcurve" smooth="yes" name="inserted"/>
      <point x="813" y="748"/>
      <point x="689" y="798"/>
      <point x="614" y="798" type="qcurve" smooth="yes"/>
      <point x="539" y="798"/>
      <point x="415" y="748"/>
      <point x="371.0" y="703.0" type="qcurve" smooth="yes" name="inserted"/>
      <point x="327" y="658"/>
      <point x="278" y="535"/>
    </contour>
  </outline>
</glyph>
<glyph name="u" format="2">
  <advance width="1228"/>
  <unicode hex="0075"/>
  <outline>
    <contour>
      <point x="1081" y="136" type="line" smooth="yes"/>
      <point x="1115" y="136"/>
      <point x="1144" y="106"/>
      <point x="1144" y="68" type="qcurve" smooth="yes"/>
      <point x="1144" y="30"/>
      <point x="1115" y="0"/>
      <point x="1081" y="0" type="qcurve" smooth="yes"/>
      <point x="922" y="0" type="line" smooth="yes"/>
      <point x="888" y="0"/>
      <point x="859" y="29"/>
      <point x="859" y="67" type="qcurve" smooth="yes"/>
      <point x="859" y="188" type="line"/>
      <point x="793" y="85"/>
      <point x="617" y="-22"/>
      <point x="514" y="-22" type="qcurve" smooth="yes"/>
      <point x="445" y="-22"/>
      <point x="335" y="24"/>
      <point x="296.5" y="66.0" type="qcurve" smooth="yes" name="inserted"/>
      <point x="258" y="108"/>
      <point x="217" y="229"/>
      <point x="217" y="304" type="qcurve" smooth="yes"/>
      <point x="217" y="788" type="line"/>
      <point x="135" y="788" type="line" smooth="yes"/>
      <point x="101" y="788"/>
      <point x="72" y="818"/>
      <point x="72" y="856" type="qcurve" smooth="yes"/>
      <point x="72" y="894"/>
      <point x="101" y="924"/>
      <point x="135" y="924" type="qcurve" smooth="yes"/>
      <point x="304" y="924" type="line" smooth="yes"/>
      <point x="338" y="924"/>
      <point x="367" y="894"/>
      <point x="367" y="856" type="qcurve" smooth="yes"/>
      <point x="367" y="319" type="line" smooth="yes"/>
      <point x="367" y="276"/>
      <point x="387" y="205"/>
      <point x="407.0" y="179.5" type="qcurve" smooth="yes" name="inserted"/>
      <point x="427" y="154"/>
      <point x="488" y="126"/>
      <point x="529" y="126" type="qcurve" smooth="yes"/>
      <point x="593" y="126"/>
      <point x="709" y="182"/>
      <point x="753.0" y="232.0" type="qcurve" smooth="yes" name="inserted"/>
      <point x="797" y="282"/>
      <point x="849" y="420"/>
      <point x="849" y="502" type="qcurve" smooth="yes"/>
      <point x="849" y="788" type="line"/>
      <point x="707" y="788" type="line" smooth="yes"/>
      <point x="673" y="788"/>
      <point x="644" y="818"/>
      <point x="644" y="856" type="qcurve" smooth="yes"/>
      <point x="644" y="894"/>
      <point x="673" y="924"/>
      <point x="707" y="924" type="qcurve" smooth="yes"/>
      <point x="936" y="924" type="line" smooth="yes"/>
      <point x="970" y="924"/>
      <point x="999" y="894"/>
      <point x="999" y="856" type="qcurve" smooth="yes"/>
      <point x="999" y="136" type="line"/>
    </contour>
  </outline>
</glyph>
<glyph name="braceleft" format="2">
  <advance width="1228"/>
  <unicode hex="007B"/>
  <outline>
    <contour>
      <point x="488" y="482" type="qcurve"/>
      <point x="561" y="438"/>
      <point x="635" y="295"/>
      <point x="635" y="203" type="qcurve" smooth="yes"/>
      <point x="635" y="-8" type="line" smooth="yes"/>
      <point x="635" y="-75"/>
      <point x="659" y="-170"/>
      <point x="684.5" y="-200.0" type="qcurve" smooth="yes" name="inserted"/>
      <point x="710" y="-230"/>
      <point x="791" y="-257"/>
      <point x="847" y="-257" type="qcurve" smooth="yes"/>
      <point x="881" y="-257"/>
      <point x="910" y="-287"/>
      <point x="910" y="-325" type="qcurve" smooth="yes"/>
      <point x="910" y="-363"/>
      <point x="881" y="-393"/>
      <point x="847" y="-393" type="qcurve" smooth="yes"/>
      <point x="672" y="-393"/>
      <point x="485" y="-211"/>
      <point x="485" y="-20" type="qcurve" smooth="yes"/>
      <point x="485" y="193" type="line" smooth="yes"/>
      <point x="485" y="302"/>
      <point x="381" y="413"/>
      <point x="270" y="413" type="qcurve" smooth="yes"/>
      <point x="236" y="413"/>
      <point x="207" y="443"/>
      <point x="207" y="481" type="qcurve" smooth="yes"/>
      <point x="207" y="519"/>
      <point x="236" y="549"/>
      <point x="270" y="549" type="qcurve" smooth="yes"/>
      <point x="381" y="549"/>
      <point x="485" y="661"/>
      <point x="485" y="770" type="qcurve" smooth="yes"/>
      <point x="485" y="939" type="line" smooth="yes"/>
      <point x="485" y="1129"/>
      <point x="672" y="1312"/>
      <point x="847" y="1312" type="qcurve" smooth="yes"/>
      <point x="881" y="1312"/>
      <point x="910" y="1282"/>
      <point x="910" y="1244" type="qcurve" smooth="yes"/>
      <point x="910" y="1206"/>
      <point x="881" y="1176"/>
      <point x="847" y="1176" type="qcurve" smooth="yes"/>
      <point x="791" y="1176"/>
      <point x="710" y="1149"/>
      <point x="684.5" y="1119.0" type="qcurve" smooth="yes" name="inserted"/>
      <point x="659" y="1089"/>
      <point x="635" y="994"/>
      <point x="635" y="927" type="qcurve" smooth="yes"/>
      <point x="635" y="760" type="line" smooth="yes"/>
      <point x="635" y="668"/>
      <point x="561" y="526"/>
    </contour>
  </outline>
</glyph>
<glyph name="bar" format="2">
  <advance width="1228"/>
  <unicode hex="007C"/>
  <outline>
    <contour>
      <point x="539" y="1269" type="line" smooth="yes"/>
      <point x="539" y="1304"/>
      <point x="572" y="1334"/>
      <point x="614" y="1334" type="qcurve" smooth="yes"/>
      <point x="656" y="1334"/>
      <point x="689" y="1304"/>
      <point x="689" y="1269" type="qcurve" smooth="yes"/>
      <point x="689" y="-350" type="line" smooth="yes"/>
      <point x="689" y="-385"/>
      <point x="656" y="-415"/>
      <point x="614" y="-415" type="qcurve" smooth="yes"/>
      <point x="572" y="-415"/>
      <point x="539" y="-385"/>
      <point x="539" y="-350" type="qcurve" smooth="yes"/>
    </contour>
  </outline>
</glyph>
<glyph name="brokenbar" format="2">
  <advance width="1228"/>
  <unicode hex="00A6"/>
  <outline>
    <contour>
      <point x="539" y="269" type="line" smooth="yes"/>
      <point x="539" y="304"/>
      <point x="572" y="334"/>
      <point x="614" y="334" type="qcurve" smooth="yes"/>
      <point x="656" y="334"/>
      <point x="689" y="304"/>
      <point x="689" y="269" type="qcurve" smooth="yes"/>
      <point x="689" y="-350" type="line" smooth="yes"/>
      <point x="689" y="-385"/>
      <point x="656" y="-415"/>
      <point x="614" y="-415" type="qcurve" smooth="yes"/>
      <point x="572" y="-415"/>
      <point x="539" y="-385"/>
      <point x="539" y="-350" type="qcurve" smooth="yes"/>
    </contour>
    <contour>
      <point x="539" y="1269" type="line" smooth="yes"/>
      <point x="539" y="1304"/>
      <point x="572" y="1334"/>
      <point x="614" y="1334" type="qcurve" smooth="yes"/>
      <point x="656" y="1334"/>
      <point x="689" y="1304"/>
      <point x="689" y="1269" type="qcurve" smooth="yes"/>
      <point x="689" y="650" type="line" smooth="yes"/>
      <point x="689" y="615"/>
      <point x="656" y="585"/>
      <point x="614" y="585" type="qcurve" smooth="yes"/>
      <point x="572" y="585"/>
      <point x="539" y="615"/>
      <point x="539" y="650" type="qcurve" smooth="yes"/>
    </contour>
  </outline>
</glyph>
<glyph name="section" format="2">
  <advance width="1228"/>
  <unicode hex="00A7"/>
  <outline>
    <contour>
      <point x="629" y="-94" type="line" smooth="yes"/>
      <point x="701" y="-94"/>
      <point x="770" y="-39"/>
      <point x="770" y="14" type="qcurve" smooth="yes"/>
      <point x="770" y="68"/>
      <point x="703" y="153"/>
      <point x="640" y="191" type="qcurve" smooth="yes"/>
      <point x="346" y="373" type="line" smooth="yes"/>
      <point x="268" y="421"/>
      <point x="179" y="542"/>
      <point x="179" y="629" type="qcurve" smooth="yes"/>
      <point x="179" y="696"/>
      <point x="250" y="795"/>
      <point x="317" y="844" type="qcurve"/>
      <point x="308.5" y="868.0" name="inserted"/>
      <point x="300.0" y="919.5"/>
      <point x="300" y="947" type="qcurve" smooth="yes"/>
      <point x="300" y="999"/>
      <point x="335" y="1088"/>
      <point x="370.5" y="1119.5" type="qcurve" smooth="yes" name="inserted"/>
      <point x="406" y="1151"/>
      <point x="510" y="1187"/>
      <point x="579" y="1187" type="qcurve" smooth="yes"/>
      <point x="925" y="1187" type="line" smooth="yes"/>
      <point x="959" y="1187"/>
      <point x="988" y="1157"/>
      <point x="988" y="1119" type="qcurve" smooth="yes"/>
      <point x="988" y="922" type="line" smooth="yes"/>
      <point x="988" y="887"/>
      <point x="955" y="857"/>
      <point x="913" y="857" type="qcurve" smooth="yes"/>
      <point x="871" y="857"/>
      <point x="838" y="887"/>
      <point x="838" y="922" type="qcurve" smooth="yes"/>
      <point x="838" y="1051" type="line"/>
      <point x="599" y="1051" type="line" smooth="yes"/>
      <point x="527" y="1051"/>
      <point x="458" y="996"/>
      <point x="458" y="943" type="qcurve" smooth="yes"/>
      <point x="458" y="889"/>
      <point x="525" y="804"/>
      <point x="588" y="766" type="qcurve" smooth="yes"/>
      <point x="882" y="584" type="line" smooth="yes"/>
      <point x="960" y="536"/>
      <point x="1049" y="415"/>
      <point x="1049" y="328" type="qcurve" smooth="yes"/>
      <point x="1049" y="294"/>
      <point x="1031" y="237"/>
      <point x="1013.0" y="211.0" type="qcurve" smooth="yes" name="inserted"/>
      <point x="995" y="185"/>
      <point x="944" y="137"/>
      <point x="911" y="113" type="qcurve"/>
      <point x="919.5" y="88.5" name="inserted"/>
      <point x="928.0" y="37.0"/>
      <point x="928" y="10" type="qcurve" smooth="yes"/>
      <point x="928" y="-43"/>
      <point x="893" y="-131"/>
      <point x="857.5" y="-162.5" type="qcurve" smooth="yes" name="inserted"/>
      <point x="822" y="-194"/>
      <point x="718" y="-230"/>
      <point x="649" y="-230" type="qcurve" smooth="yes"/>
      <point x="303" y="-230" type="line" smooth="yes"/>
      <point x="269" y="-230"/>
      <point x="240" y="-200"/>
      <point x="240" y="-162" type="qcurve" smooth="yes"/>
      <point x="240" y="55" type="line" smooth="yes"/>
      <point x="240" y="90"/>
      <point x="273" y="120"/>
      <point x="315" y="120" type="qcurve" smooth="yes"/>
      <point x="357" y="120"/>
      <point x="390" y="90"/>
      <point x="390" y="55" type="qcurve" smooth="yes"/>
      <point x="390" y="-94" type="line"/>
    </contour>
    <contour>
      <point x="833" y="233" type="qcurve"/>
      <point x="862" y="256"/>
      <point x="891" y="303"/>
      <point x="891" y="332" type="qcurve" smooth="yes"/>
      <point x="891" y="374"/>
      <point x="839" y="432"/>
      <point x="791" y="462" type="qcurve" smooth="yes"/>
      <point x="497" y="644" type="line" smooth="yes"/>
      <point x="468" y="662"/>
      <point x="416" y="701"/>
      <point x="394" y="723" type="qcurve"/>
      <point x="366" y="701"/>
      <point x="337" y="654"/>
      <point x="337" y="625" type="qcurve" smooth="yes"/>
      <point x="337" y="583"/>
      <point x="389" y="525"/>
      <point x="437" y="495" type="qcurve" smooth="yes"/>
      <point x="731" y="313" type="line" smooth="yes"/>
      <point x="759.5" y="295.5" name="inserted"/>
      <point x="810.5" y="255.5"/>
    </contour>
  </outline>
</glyph>
<glyph name="twosuperior" format="2">
  <advance width="1228"/>
  <unicode hex="00B2"/>
  <outline>
    <contour>
      <point x="446" y="1063" type="line" smooth="yes"/>
      <point x="446" y="1038"/>
      <point x="416" y="1012"/>
      <point x="378" y="1012" type="qcurve" smooth="yes"/>
      <point x="341" y="1012"/>
      <point x="311" y="1038"/>
      <point x="311" y="1063" type="qcurve" smooth="yes"/>
      <point x="311" y="1210" type="line" smooth="yes"/>
      <point x="311.0" y="1223.5" name="inserted"/>
      <point x="321.5" y="1244.5"/>
      <point x="332" y="1252" type="qcurve" smooth="yes"/>
      <point x="392" y="1292"/>
      <point x="544" y="1334"/>
      <point x="616" y="1334" type="qcurve" smooth="yes"/>
      <point x="683" y="1334"/>
      <point x="788" y="1298"/>
      <point x="825.0" y="1264.5" type="qcurve" smooth="yes" name="inserted"/>
      <point x="862" y="1231"/>
      <point x="901" y="1136"/>
      <point x="901" y="1078" type="qcurve" smooth="yes"/>
      <point x="901" y="1038"/>
      <point x="880" y="968"/>
      <point x="859.5" y="935.0" type="qcurve" smooth="yes" name="inserted"/>
      <point x="839" y="902"/>
      <point x="778" y="839"/>
      <point x="738" y="806" type="qcurve" smooth="yes"/>
      <point x="499" y="608" type="line"/>
      <point x="821" y="608" type="line"/>
      <point x="821" y="686" type="line" smooth="yes"/>
      <point x="821" y="711"/>
      <point x="851" y="737"/>
      <point x="889" y="737" type="qcurve" smooth="yes"/>
      <point x="926" y="737"/>
      <point x="956" y="711"/>
      <point x="956" y="686" type="qcurve" smooth="yes"/>
      <point x="956" y="536" type="line" smooth="yes"/>
      <point x="956.0" y="509.5" name="inserted"/>
      <point x="931.0" y="483.0"/>
      <point x="906" y="483" type="qcurve" smooth="yes"/>
      <point x="335" y="483" type="line" smooth="yes"/>
      <point x="311" y="483"/>
      <point x="288" y="520"/>
      <point x="288" y="555" type="qcurve" smooth="yes"/>
      <point x="288" y="577"/>
      <point x="305" y="608"/>
      <point x="319" y="620" type="qcurve" smooth="yes"/>
      <point x="651" y="900" type="line" smooth="yes"/>
      <point x="705" y="946"/>
      <point x="761" y="1027"/>
      <point x="761" y="1078" type="qcurve" smooth="yes"/>
      <point x="761" y="1135"/>
      <point x="683" y="1205"/>
      <point x="607" y="1205" type="qcurve" smooth="yes"/>
      <point x="564" y="1205"/>
      <point x="480" y="1184"/>
      <point x="446" y="1166" type="qcurve"/>
    </contour>
  </outline>
</glyph>
<glyph name="paragraph" format="2">
  <advance width="1228"/>
  <unicode hex="00B6"/>
  <outline>
    <contour>
      <point x="676" y="-350" type="line" smooth="yes"/>
      <point x="676" y="-385"/>
      <point x="643" y="-415"/>
      <point x="601" y="-415" type="qcurve" smooth="yes"/>
      <point x="559" y="-415"/>
      <point x="526" y="-385"/>
      <point x="526" y="-350" type="qcurve" smooth="yes"/>
      <point x="526" y="502" type="line"/>
      <point x="439" y="505"/>
      <point x="293" y="553"/>
      <point x="241.0" y="597.0" type="qcurve" smooth="yes" name="inserted"/>
      <point x="189" y="641"/>
      <point x="131" y="766"/>
      <point x="131" y="844" type="qcurve" smooth="yes"/>
      <point x="131" y="925"/>
      <point x="192" y="1052"/>
      <point x="247.5" y="1096.5" type="qcurve" smooth="yes" name="inserted"/>
      <point x="303" y="1141"/>
      <point x="456" y="1187"/>
      <point x="548" y="1187" type="qcurve" smooth="yes"/>
      <point x="1054" y="1187" type="line" smooth="yes"/>
      <point x="1088" y="1187"/>
      <point x="1117" y="1157"/>
      <point x="1117" y="1119" type="qcurve" smooth="yes"/>
      <point x="1117" y="1081"/>
      <point x="1088" y="1051"/>
      <point x="1054" y="1051" type="qcurve" smooth="yes"/>
      <point x="986" y="1051" type="line"/>
      <point x="986" y="-350" type="line" smooth="yes"/>
      <point x="986" y="-385"/>
      <point x="953" y="-415"/>
      <point x="911" y="-415" type="qcurve" smooth="yes"/>
      <point x="869" y="-415"/>
      <point x="836" y="-385"/>
      <point x="836" y="-350" type="qcurve" smooth="yes"/>
      <point x="836" y="1051" type="line"/>
      <point x="676" y="1051" type="line"/>
    </contour>
  </outline>
</glyph>
<glyph name="cedilla" format="2">
  <advance width="1228"/>
  <unicode hex="00B8"/>
  <outline>
    <contour>
      <point x="529" y="28" type="line"/>
      <point x="664" y="28" type="line"/>
      <point x="664" y="-113" type="line"/>
      <point x="716" y="-112"/>
      <point x="793" y="-138"/>
      <point x="818.5" y="-161.0" type="qcurve" smooth="yes" name="inserted"/>
      <point x="844" y="-184"/>
      <point x="870" y="-246"/>
      <point x="870" y="-281" type="qcurve" smooth="yes"/>
      <point x="870" y="-323"/>
      <point x="839" y="-393"/>
      <point x="808.0" y="-418.5" type="qcurve" smooth="yes" name="inserted"/>
      <point x="777" y="-444"/>
      <point x="684" y="-472"/>
      <point x="621" y="-472" type="qcurve" smooth="yes"/>
      <point x="554" y="-472"/>
      <point x="426" y="-448"/>
      <point x="374" y="-424" type="qcurve" smooth="yes"/>
      <point x="356" y="-416"/>
      <point x="351" y="-376"/>
      <point x="359" y="-356" type="qcurve" smooth="yes"/>
      <point x="367" y="-336"/>
      <point x="399" y="-310"/>
      <point x="418" y="-318" type="qcurve" smooth="yes"/>
      <point x="457" y="-333"/>
      <point x="560" y="-352"/>
      <point x="611" y="-352" type="qcurve" smooth="yes"/>
      <point x="661" y="-352"/>
      <point x="714" y="-317"/>
      <point x="714" y="-285" type="qcurve" smooth="yes"/>
      <point x="714" y="-243"/>
      <point x="638" y="-212"/>
      <point x="569" y="-217" type="qcurve"/>
      <point x="562" y="-217"/>
      <point x="548" y="-215"/>
      <point x="542.0" y="-210.5" type="qcurve" smooth="yes" name="inserted"/>
      <point x="536" y="-206"/>
      <point x="529" y="-189"/>
      <point x="529" y="-175" type="qcurve" smooth="yes"/>
    </contour>
  </outline>
</glyph>
<glyph name="AE" format="2">
  <advance width="1228"/>
  <unicode hex="00C6"/>
  <outline>
    <contour>
      <point x="393" y="1051" type="line"/>
      <point x="294" y="1051" type="line" smooth="yes"/>
      <point x="260" y="1051"/>
      <point x="231" y="1081"/>
      <point x="231" y="1119" type="qcurve" smooth="yes"/>
      <point x="231" y="1157"/>
      <point x="260" y="1187"/>
      <point x="294" y="1187" type="qcurve" smooth="yes"/>
      <point x="1063" y="1187" type="line" smooth="yes"/>
      <point x="1097" y="1187"/>
      <point x="1126" y="1157"/>
      <point x="1126" y="1119" type="qcurve" smooth="yes"/>
      <point x="1126" y="865" type="line" smooth="yes"/>
      <point x="1126" y="830"/>
      <point x="1093" y="800"/>
      <point x="1051" y="800" type="qcurve" smooth="yes"/>
      <point x="1009" y="800"/>
      <point x="976" y="830"/>
      <point x="976" y="865" type="qcurve" smooth="yes"/>
      <point x="976" y="1051" type="line"/>
      <point x="716" y="1051" type="line"/>
      <point x="716" y="685" type="line"/>
      <point x="908" y="685" type="line" smooth="yes"/>
      <point x="942" y="685"/>
      <point x="971" y="655"/>
      <point x="971" y="617" type="qcurve" smooth="yes"/>
      <point x="971" y="579"/>
      <point x="942" y="549"/>
      <point x="908" y="549" type="qcurve" smooth="yes"/>
      <point x="716" y="549" type="line"/>
      <point x="716" y="136" type="line"/>
      <point x="988" y="136" type="line"/>
      <point x="988" y="365" type="line" smooth="yes"/>
      <point x="988" y="400"/>
      <point x="1021" y="430"/>
      <point x="1063" y="430" type="qcurve" smooth="yes"/>
      <point x="1105" y="430"/>
      <point x="1138" y="400"/>
      <point x="1138" y="365" type="qcurve" smooth="yes"/>
      <point x="1138" y="68" type="line" smooth="yes"/>
      <point x="1138" y="30"/>
      <point x="1109" y="0"/>
      <point x="1075" y="0" type="qcurve" smooth="yes"/>
      <point x="629" y="0" type="line" smooth="yes"/>
      <point x="595" y="0"/>
      <point x="566" y="30"/>
      <point x="566" y="68" type="qcurve" smooth="yes"/>
      <point x="566" y="374" type="line"/>
      <point x="341" y="374" type="line"/>
      <point x="269" y="136" type="line"/>
      <point x="357" y="136" type="line" smooth="yes"/>
      <point x="391" y="136"/>
      <point x="420" y="106"/>
      <point x="420" y="68" type="qcurve" smooth="yes"/>
      <point x="420" y="30"/>
      <point x="391" y="0"/>
      <point x="357" y="0" type="qcurve" smooth="yes"/>
      <point x="63" y="0" type="line" smooth="yes"/>
      <point x="29" y="0"/>
      <point x="0" y="30"/>
      <point x="0" y="68" type="qcurve" smooth="yes"/>
      <point x="0" y="106"/>
      <point x="29" y="136"/>
      <point x="63" y="136" type="qcurve" smooth="yes"/>
      <point x="113" y="136" type="line"/>
    </contour>
    <contour>
      <point x="566" y="510" type="line"/>
      <point x="566" y="1051" type="line"/>
      <point x="546" y="1051" type="line"/>
      <point x="382" y="510" type="line"/>
    </contour>
  </outline>
</glyph>
<glyph name="germandbls" format="2">
  <advance width="1228"/>
  <unicode hex="00DF"/>
  <outline>
    <contour>
      <point x="245" y="943" type="line" smooth="yes"/>
      <point x="245" y="1025"/>
      <point x="295" y="1163"/>
      <point x="343.0" y="1212.5" type="qcurve" smooth="yes" name="inserted"/>
      <point x="391" y="1262"/>
      <point x="529" y="1317"/>
      <point x="616" y="1317" type="qcurve" smooth="yes"/>
      <point x="710" y="1317"/>
      <point x="851" y="1263"/>
      <point x="898.5" y="1216.5" type="qcurve" smooth="yes" name="inserted"/>
      <point x="946" y="1170"/>
      <point x="994" y="1043"/>
      <point x="994" y="971" type="qcurve" smooth="yes"/>
      <point x="994" y="876"/>
      <point x="899" y="744"/>
      <point x="820" y="702" type="qcurve"/>
      <point x="927" y="661"/>
      <point x="1051" y="485"/>
      <point x="1051" y="360" type="qcurve" smooth="yes"/>
      <point x="1051" y="270"/>
      <point x="992" y="128"/>
      <point x="938.5" y="79.0" type="qcurve" smooth="yes" name="inserted"/>
      <point x="885" y="30"/>
      <point x="735" y="-22"/>
      <point x="644" y="-22" type="qcurve" smooth="yes"/>
      <point x="593" y="-22"/>
      <point x="561" y="12"/>
      <point x="561" y="55" type="qcurve" smooth="yes"/>
      <point x="561" y="92"/>
      <point x="590" y="126"/>
      <point x="625" y="126" type="qcurve" smooth="yes"/>
      <point x="750" y="126"/>
      <point x="893" y="247"/>
      <point x="893" y="362" type="qcurve" smooth="yes"/>
      <point x="893" y="424"/>
      <point x="857" y="520"/>
      <point x="823.5" y="552.5" type="qcurve" smooth="yes" name="inserted"/>
      <point x="790" y="585"/>
      <point x="695" y="619"/>
      <point x="637" y="619" type="qcurve" smooth="yes"/>
      <point x="603" y="619"/>
      <point x="574" y="652"/>
      <point x="574" y="688" type="qcurve" smooth="yes"/>
      <point x="574" y="724"/>
      <point x="603" y="756"/>
      <point x="637" y="759" type="qcurve" smooth="yes"/>
      <point x="737" y="769"/>
      <point x="838" y="883"/>
      <point x="838" y="971" type="qcurve" smooth="yes"/>
      <point x="838" y="1064"/>
      <point x="723" y="1172"/>
      <point x="612" y="1172" type="qcurve" smooth="yes"/>
      <point x="560" y="1172"/>
      <point x="479" y="1138"/>
      <point x="451.5" y="1106.5" type="qcurve" smooth="yes" name="inserted"/>
      <point x="424" y="1075"/>
      <point x="395" y="987"/>
      <point x="395" y="932" type="qcurve" smooth="yes"/>
      <point x="395" y="68" type="line" smooth="yes"/>
      <point x="395" y="30"/>
      <point x="366" y="0"/>
      <point x="332" y="0" type="qcurve" smooth="yes"/>
      <point x="103" y="0" type="line" smooth="yes"/>
      <point x="69" y="0"/>
      <point x="40" y="30"/>
      <point x="40" y="68" type="qcurve" smooth="yes"/>
      <point x="40" y="106"/>
      <point x="69" y="136"/>
      <point x="103" y="136" type="qcurve" smooth="yes"/>
      <point x="245" y="136" type="line"/>
    </contour>
  </outline>
</glyph>
<glyph name="ae" format="2">
  <advance width="1228"/>
  <unicode hex="00E6"/>
  <outline>
    <contour>
      <point x="1151" y="502" type="qcurve" smooth="yes"/>
      <point x="1151" y="468"/>
      <point x="1122" y="440"/>
      <point x="1088" y="440" type="qcurve" smooth="yes"/>
      <point x="689" y="440" type="line"/>
      <point x="690" y="350"/>
      <point x="717" y="228"/>
      <point x="739.0" y="191.0" type="qcurve" smooth="yes" name="inserted"/>
      <point x="761" y="154"/>
      <point x="820" y="123"/>
      <point x="853" y="123" type="qcurve" smooth="yes"/>
      <point x="901" y="123"/>
      <point x="981" y="160"/>
      <point x="1023" y="201" type="qcurve" smooth="yes"/>
      <point x="1042" y="220"/>
      <point x="1095" y="216"/>
      <point x="1118" y="187" type="qcurve" smooth="yes"/>
      <point x="1141" y="158"/>
      <point x="1136" y="107"/>
      <point x="1112" y="84" type="qcurve" smooth="yes"/>
      <point x="1056" y="31"/>
      <point x="925" y="-22"/>
      <point x="853" y="-22" type="qcurve" smooth="yes"/>
      <point x="774" y="-22"/>
      <point x="651" y="48"/>
      <point x="609" y="122" type="qcurve"/>
      <point x="561" y="55"/>
      <point x="416" y="-22"/>
      <point x="335" y="-22" type="qcurve" smooth="yes"/>
      <point x="276" y="-22"/>
      <point x="180" y="15"/>
      <point x="146.0" y="49.0" type="qcurve" smooth="yes" name="inserted"/>
      <point x="112" y="83"/>
      <point x="75" y="180"/>
      <point x="75" y="240" type="qcurve" smooth="yes"/>
      <point x="75" y="325"/>
      <point x="142" y="453"/>
      <point x="203.0" y="495.5" type="qcurve" smooth="yes" name="inserted"/>
      <point x="264" y="538"/>
      <point x="435" y="580"/>
      <point x="539" y="580" type="qcurve"/>
      <point x="539" y="602" type="line" smooth="yes"/>
      <point x="539" y="648"/>
      <point x="528" y="722"/>
      <point x="513.5" y="748.0" type="qcurve" smooth="yes" name="inserted"/>
      <point x="499" y="774"/>
      <point x="448" y="801"/>
      <point x="408" y="801" type="qcurve" smooth="yes"/>
      <point x="362" y="801"/>
      <point x="277" y="767"/>
      <point x="231" y="732" type="qcurve" smooth="yes"/>
      <point x="209" y="715"/>
      <point x="159" y="718"/>
      <point x="137" y="742" type="qcurve" smooth="yes"/>
      <point x="115" y="767"/>
      <point x="116" y="820"/>
      <point x="139" y="840" type="qcurve" smooth="yes"/>
      <point x="203" y="895"/>
      <point x="337" y="946"/>
      <point x="408" y="946" type="qcurve" smooth="yes"/>
      <point x="489" y="946"/>
      <point x="597" y="885"/>
      <point x="629" y="830" type="qcurve"/>
      <point x="669" y="888"/>
      <point x="782" y="946"/>
      <point x="853" y="946" type="qcurve" smooth="yes"/>
      <point x="932" y="946"/>
      <point x="1044" y="882"/>
      <point x="1079.0" y="824.0" type="qcurve" smooth="yes" name="inserted"/>
      <point x="1114" y="766"/>
      <point x="1148" y="602"/>
    </contour>
    <contour>
      <point x="539" y="440" type="line"/>
      <point x="376" y="440"/>
      <point x="228" y="338"/>
      <point x="228" y="240" type="qcurve" smooth="yes"/>
      <point x="228" y="182"/>
      <point x="288" y="119"/>
      <point x="339" y="119" type="qcurve" smooth="yes"/>
      <point x="381" y="119"/>
      <point x="454" y="152"/>
      <point x="481.0" y="181.0" type="qcurve" smooth="yes" name="inserted"/>
      <point x="508" y="210"/>
      <point x="539" y="292"/>
      <point x="539" y="340" type="qcurve" smooth="yes"/>
    </contour>
    <contour>
      <point x="855" y="801" type="qcurve" smooth="yes"/>
      <point x="786" y="801"/>
      <point x="706" y="699"/>
      <point x="694" y="580" type="qcurve"/>
      <point x="994" y="580" type="line"/>
      <point x="987" y="683"/>
      <point x="923" y="801"/>
    </contour>
  </outline>
</glyph>
<glyph name="ccedilla" format="2">
  <advance width="1228"/>
  <unicode hex="00E7"/>
  <outline>
    <contour>
      <point x="529" y="-16" type="line"/>
      <point x="437" y="-3"/>
      <point x="288" y="79"/>
      <point x="235.5" y="142.0" type="qcurve" smooth="yes" name="inserted"/>
      <point x="183" y="205"/>
      <point x="127" y="368"/>
      <point x="127" y="462" type="qcurve" smooth="yes"/>
      <point x="127" y="566"/>
      <point x="197" y="743"/>
      <point x="260.5" y="808.0" type="qcurve" smooth="yes" name="inserted"/>
      <point x="324" y="873"/>
      <point x="501" y="946"/>
      <point x="609" y="946" type="qcurve" smooth="yes"/>
      <point x="700" y="946"/>
      <point x="848" y="881"/>
      <point x="899" y="821" type="qcurve"/>
      <point x="899" y="881" type="line" smooth="yes"/>
      <point x="899" y="916"/>
      <point x="932" y="946"/>
      <point x="974" y="946" type="qcurve" smooth="yes"/>
      <point x="1016" y="946"/>
      <point x="1049" y="916"/>
      <point x="1049" y="881" type="qcurve" smooth="yes"/>
      <point x="1049" y="591" type="line" smooth="yes"/>
      <point x="1049" y="556"/>
      <point x="1016" y="526"/>
      <point x="974" y="526" type="qcurve" smooth="yes"/>
      <point x="932" y="526"/>
      <point x="899" y="556"/>
      <point x="899" y="591" type="qcurve" smooth="yes"/>
      <point x="899" y="636"/>
      <point x="863" y="712"/>
      <point x="827.5" y="739.5" type="qcurve" smooth="yes" name="inserted"/>
      <point x="792" y="767"/>
      <point x="688" y="798"/>
      <point x="619" y="798" type="qcurve" smooth="yes"/>
      <point x="546" y="798"/>
      <point x="423" y="748"/>
      <point x="379.0" y="703.0" type="qcurve" smooth="yes" name="inserted"/>
      <point x="335" y="658"/>
      <point x="285" y="535"/>
      <point x="285" y="462" type="qcurve" smooth="yes"/>
      <point x="285" y="389"/>
      <point x="331" y="266"/>
      <point x="373.5" y="221.0" type="qcurve" smooth="yes" name="inserted"/>
      <point x="416" y="176"/>
      <point x="536" y="126"/>
      <point x="609" y="126" type="qcurve" smooth="yes"/>
      <point x="701" y="126"/>
      <point x="873" y="182"/>
      <point x="945" y="237" type="qcurve" smooth="yes"/>
      <point x="971" y="257"/>
      <point x="1017" y="247"/>
      <point x="1038" y="212" type="qcurve" smooth="yes"/>
      <point x="1055" y="185"/>
      <point x="1050" y="128"/>
      <point x="1021" y="106" type="qcurve" smooth="yes"/>
      <point x="950" y="53"/>
      <point x="764" y="-12"/>
      <point x="664" y="-20" type="qcurve"/>
      <point x="664" y="-113" type="line"/>
      <point x="716" y="-112"/>
      <point x="793" y="-138"/>
      <point x="818.5" y="-161.0" type="qcurve" smooth="yes" name="inserted"/>
      <point x="844" y="-184"/>
      <point x="870" y="-246"/>
      <point x="870" y="-281" type="qcurve" smooth="yes"/>
      <point x="870" y="-323"/>
      <point x="839" y="-393"/>
      <point x="808.0" y="-418.5" type="qcurve" smooth="yes" name="inserted"/>
      <point x="777" y="-444"/>
      <point x="684" y="-472"/>
      <point x="621" y="-472" type="qcurve" smooth="yes"/>
      <point x="554" y="-472"/>
      <point x="426" y="-448"/>
      <point x="374" y="-424" type="qcurve" smooth="yes"/>
      <point x="356" y="-416"/>
      <point x="351" y="-376"/>
      <point x="359" y="-356" type="qcurve" smooth="yes"/>
      <point x="367" y="-336"/>
      <point x="399" y="-310"/>
      <point x="418" y="-318" type="qcurve" smooth="yes"/>
      <point x="457" y="-333"/>
      <point x="560" y="-352"/>
      <point x="611" y="-352" type="qcurve" smooth="yes"/>
      <point x="661" y="-352"/>
      <point x="714" y="-317"/>
      <point x="714" y="-285" type="qcurve" smooth="yes"/>
      <point x="714" y="-243"/>
      <point x="638" y="-212"/>
      <point x="569" y="-217" type="qcurve"/>
      <point x="562" y="-217"/>
      <point x="548" y="-215"/>
      <point x="542.0" y="-210.5" type="qcurve" smooth="yes" name="inserted"/>
      <point x="536" y="-206"/>
      <point x="529" y="-189"/>
      <point x="529" y="-175" type="qcurve" smooth="yes"/>
    </contour>
  </outline>
</glyph>
<glyph name="dcroat" format="2">
  <advance width="1228"/>
  <unicode hex="0111"/>
  <outline>
    <contour>
      <point x="876" y="1106" type="line"/>
      <point x="876" y="1176" type="line"/>
      <point x="674" y="1176" type="line" smooth="yes"/>
      <point x="640" y="1176"/>
      <point x="611" y="1206"/>
      <point x="611" y="1244" type="qcurve" smooth="yes"/>
      <point x="611" y="1282"/>
      <point x="640" y="1312"/>
      <point x="674" y="1312" type="qcurve" smooth="yes"/>
      <point x="963" y="1312" type="line" smooth="yes"/>
      <point x="997" y="1312"/>
      <point x="1026" y="1282"/>
      <point x="1026" y="1244" type="qcurve" smooth="yes"/>
      <point x="1026" y="1106" type="line"/>
      <point x="1135" y="1106" type="line" smooth="yes"/>
      <point x="1169" y="1106"/>
      <point x="1198" y="1076"/>
      <point x="1198" y="1038" type="qcurve" smooth="yes"/>
      <point x="1198" y="1000"/>
      <point x="1169" y="970"/>
      <point x="1135" y="970" type="qcurve" smooth="yes"/>
      <point x="1026" y="970" type="line"/>
      <point x="1026" y="136" type="line"/>
      <point x="1108" y="136" type="line" smooth="yes"/>
      <point x="1142" y="136"/>
      <point x="1171" y="106"/>
      <point x="1171" y="68" type="qcurve" smooth="yes"/>
      <point x="1171" y="30"/>
      <point x="1142" y="0"/>
      <point x="1108" y="0" type="qcurve" smooth="yes"/>
      <point x="949" y="0" type="line" smooth="yes"/>
      <point x="915" y="0"/>
      <point x="886" y="30"/>
      <point x="886" y="68" type="qcurve" smooth="yes"/>
      <point x="886" y="148" type="line"/>
      <point x="824" y="67"/>
      <point x="659" y="-22"/>
      <point x="559" y="-22" type="qcurve" smooth="yes"/>
      <point x="466" y="-22"/>
      <point x="308" y="41"/>
      <point x="250.5" y="100.0" type="qcurve" smooth="yes" name="inserted"/>
      <point x="193" y="159"/>
      <point x="127" y="329"/>
      <point x="127" y="437" type="qcurve" smooth="yes"/>
      <point x="127" y="545"/>
      <point x="193" y="715"/>
      <point x="250.5" y="774.0" type="qcurve" smooth="yes" name="inserted"/>
      <point x="308" y="833"/>
      <point x="466" y="896"/>
      <point x="559" y="896" type="qcurve" smooth="yes"/>
      <point x="659" y="896"/>
      <point x="816" y="815"/>
      <point x="876" y="740" type="qcurve"/>
      <point x="876" y="970" type="line"/>
      <point x="573" y="970" type="line" smooth="yes"/>
      <point x="539" y="970"/>
      <point x="510" y="1000"/>
      <point x="510" y="1038" type="qcurve" smooth="yes"/>
      <point x="510" y="1076"/>
      <point x="539" y="1106"/>
      <point x="573" y="1106" type="qcurve" smooth="yes"/>
    </contour>
    <contour>
      <point x="876" y="437" type="qcurve" smooth="yes"/>
      <point x="876" y="511"/>
      <point x="830" y="627"/>
      <point x="789.0" y="666.5" type="qcurve" smooth="yes" name="inserted"/>
      <point x="748" y="706"/>
      <point x="635" y="748"/>
      <point x="569" y="748" type="qcurve" smooth="yes"/>
      <point x="501" y="748"/>
      <point x="395" y="702"/>
      <point x="359.0" y="660.5" type="qcurve" smooth="yes" name="inserted"/>
      <point x="323" y="619"/>
      <point x="285" y="505"/>
      <point x="285" y="437" type="qcurve" smooth="yes"/>
      <point x="285" y="369"/>
      <point x="323" y="255"/>
      <point x="359.0" y="213.5" type="qcurve" smooth="yes" name="inserted"/>
      <point x="395" y="172"/>
      <point x="501" y="126"/>
      <point x="569" y="126" type="qcurve" smooth="yes"/>
      <point x="635" y="126"/>
      <point x="748" y="168"/>
      <point x="789.0" y="207.5" type="qcurve" smooth="yes" name="inserted"/>
      <point x="830" y="247"/>
      <point x="876" y="363"/>
    </contour>
  </outline>
</glyph>
<glyph name="Eogonek" format="2">
  <advance width="1228"/>
  <unicode hex="0118"/>
  <outline>
    <contour>
      <point x="245" y="1051" type="line"/>
      <point x="143" y="1051" type="line" smooth="yes"/>
      <point x="109" y="1051"/>
      <point x="80" y="1081"/>
      <point x="80" y="1119" type="qcurve" smooth="yes"/>
      <point x="80" y="1157"/>
      <point x="109" y="1187"/>
      <point x="143" y="1187" type="qcurve" smooth="yes"/>
      <point x="1017" y="1187" type="line" smooth="yes"/>
      <point x="1051" y="1187"/>
      <point x="1080" y="1157"/>
      <point x="1080" y="1119" type="qcurve" smooth="yes"/>
      <point x="1080" y="865" type="line" smooth="yes"/>
      <point x="1080" y="830"/>
      <point x="1047" y="800"/>
      <point x="1005" y="800" type="qcurve" smooth="yes"/>
      <point x="963" y="800"/>
      <point x="930" y="830"/>
      <point x="930" y="865" type="qcurve" smooth="yes"/>
      <point x="930" y="1051" type="line"/>
      <point x="395" y="1051" type="line"/>
      <point x="395" y="680" type="line"/>
      <point x="645" y="680" type="line"/>
      <point x="645" y="771" type="line" smooth="yes"/>
      <point x="645" y="806"/>
      <point x="678" y="836"/>
      <point x="720" y="836" type="qcurve" smooth="yes"/>
      <point x="762" y="836"/>
      <point x="795" y="806"/>
      <point x="795" y="771" type="qcurve" smooth="yes"/>
      <point x="795" y="453" type="line" smooth="yes"/>
      <point x="795" y="418"/>
      <point x="762" y="388"/>
      <point x="720" y="388" type="qcurve" smooth="yes"/>
      <point x="678" y="388"/>
      <point x="645" y="418"/>
      <point x="645" y="453" type="qcurve" smooth="yes"/>
      <point x="645" y="544" type="line"/>
      <point x="395" y="544" type="line"/>
      <point x="395" y="136" type="line"/>
      <point x="950" y="136" type="line"/>
      <point x="950" y="365" type="line" smooth="yes"/>
      <point x="950" y="400"/>
      <point x="983" y="430"/>
      <point x="1025" y="430" type="qcurve" smooth="yes"/>
      <point x="1067" y="430"/>
      <point x="1100" y="400"/>
      <point x="1100" y="365" type="qcurve" smooth="yes"/>
      <point x="1100" y="68" type="line" smooth="yes"/>
      <point x="1100" y="30"/>
      <point x="1071" y="0"/>
      <point x="1037" y="0" type="qcurve" smooth="yes"/>
      <point x="1013" y="0" type="line"/>
      <point x="924" y="-83"/>
      <point x="847" y="-206"/>
      <point x="847" y="-261" type="qcurve" smooth="yes"/>
      <point x="847" y="-298"/>
      <point x="890" y="-336"/>
      <point x="924" y="-336" type="qcurve" smooth="yes"/>
      <point x="953" y="-336"/>
      <point x="1011" y="-331"/>
      <point x="1037" y="-326" type="qcurve" smooth="yes"/>
      <point x="1057" y="-323"/>
      <point x="1083" y="-346"/>
      <point x="1087" y="-374" type="qcurve" smooth="yes"/>
      <point x="1092" y="-405"/>
      <point x="1077" y="-438"/>
      <point x="1055" y="-446" type="qcurve" smooth="yes"/>
      <point x="1020" y="-458"/>
      <point x="938" y="-472"/>
      <point x="891" y="-472" type="qcurve" smooth="yes"/>
      <point x="797" y="-472"/>
      <point x="691" y="-369"/>
      <point x="691" y="-281" type="qcurve" smooth="yes"/>
      <point x="691" y="-204"/>
      <point x="780" y="-66"/>
      <point x="855" y="0" type="qcurve"/>
      <point x="143" y="0" type="line" smooth="yes"/>
      <point x="109" y="0"/>
      <point x="80" y="30"/>
      <point x="80" y="68" type="qcurve" smooth="yes"/>
      <point x="80" y="106"/>
      <point x="109" y="136"/>
      <point x="143" y="136" type="qcurve" smooth="yes"/>
      <point x="245" y="136" type="line"/>
    </contour>
  </outline>
</glyph>
<glyph name="eogonek" format="2">
  <advance width="1228"/>
  <unicode hex="0119"/>
  <outline>
    <contour>
      <point x="304" y="425" type="line"/>
      <point x="312" y="274"/>
      <point x="463" y="123"/>
      <point x="603" y="123" type="qcurve" smooth="yes"/>
      <point x="704" y="123"/>
      <point x="894" y="169"/>
      <point x="963" y="209" type="qcurve" smooth="yes"/>
      <point x="995" y="227"/>
      <point x="1038" y="197"/>
      <point x="1051" y="165" type="qcurve" smooth="yes"/>
      <point x="1065" y="133"/>
      <point x="1049" y="82"/>
      <point x="1016" y="65" type="qcurve" smooth="yes"/>
      <point x="1007" y="60"/>
      <point x="968" y="32"/>
      <point x="928" y="-5" type="qcurve" smooth="yes"/>
      <point x="883" y="-47"/>
      <point x="822" y="-118"/>
      <point x="803.0" y="-149.0" type="qcurve" smooth="yes" name="inserted"/>
      <point x="784" y="-180"/>
      <point x="767" y="-236"/>
      <point x="767" y="-261" type="qcurve" smooth="yes"/>
      <point x="767" y="-298"/>
      <point x="810" y="-336"/>
      <point x="844" y="-336" type="qcurve" smooth="yes"/>
      <point x="873" y="-336"/>
      <point x="931" y="-331"/>
      <point x="957" y="-326" type="qcurve" smooth="yes"/>
      <point x="977" y="-323"/>
      <point x="1003" y="-346"/>
      <point x="1007" y="-374" type="qcurve" smooth="yes"/>
      <point x="1012" y="-405"/>
      <point x="997" y="-438"/>
      <point x="975" y="-446" type="qcurve" smooth="yes"/>
      <point x="940" y="-458"/>
      <point x="858" y="-472"/>
      <point x="811" y="-472" type="qcurve" smooth="yes"/>
      <point x="717" y="-472"/>
      <point x="611" y="-369"/>
      <point x="611" y="-281" type="qcurve" smooth="yes"/>
      <point x="611" y="-206"/>
      <point x="694" y="-73"/>
      <point x="765" y="-9" type="qcurve"/>
      <point x="726" y="-15"/>
      <point x="645" y="-22"/>
      <point x="603" y="-22" type="qcurve" smooth="yes"/>
      <point x="493" y="-22"/>
      <point x="323" y="45"/>
      <point x="265.0" y="107.5" type="qcurve" smooth="yes" name="inserted"/>
      <point x="207" y="170"/>
      <point x="146" y="349"/>
      <point x="146" y="462" type="qcurve" smooth="yes"/>
      <point x="146" y="571"/>
      <point x="217" y="750"/>
      <point x="280.0" y="813.5" type="qcurve" smooth="yes" name="inserted"/>
      <point x="343" y="877"/>
      <point x="518" y="946"/>
      <point x="623" y="946" type="qcurve" smooth="yes"/>
      <point x="734" y="946"/>
      <point x="904" y="877"/>
      <point x="962.5" y="816.0" type="qcurve" smooth="yes" name="inserted"/>
      <point x="1021" y="755"/>
      <point x="1085" y="587"/>
      <point x="1091" y="487" type="qcurve"/>
      <point x="1091" y="453"/>
      <point x="1062" y="425"/>
      <point x="1028" y="425" type="qcurve" smooth="yes"/>
    </contour>
    <contour>
      <point x="623" y="801" type="qcurve" smooth="yes"/>
      <point x="498" y="801"/>
      <point x="339" y="676"/>
      <point x="314" y="565" type="qcurve"/>
      <point x="925" y="565" type="line"/>
      <point x="904" y="678"/>
      <point x="756" y="801"/>
    </contour>
  </outline>
</glyph>
<glyph name="Lslash" format="2">
  <advance width="1228"/>
  <unicode hex="0141"/>
  <outline>
    <contour>
      <point x="305" y="448" type="line"/>
      <point x="169" y="356" type="line" smooth="yes"/>
      <point x="141" y="337"/>
      <point x="99" y="345"/>
      <point x="78" y="377" type="qcurve" smooth="yes"/>
      <point x="57" y="408"/>
      <point x="64" y="449"/>
      <point x="92" y="468" type="qcurve" smooth="yes"/>
      <point x="305" y="613" type="line"/>
      <point x="305" y="1051" type="line"/>
      <point x="143" y="1051" type="line" smooth="yes"/>
      <point x="109" y="1051"/>
      <point x="80" y="1081"/>
      <point x="80" y="1119" type="qcurve" smooth="yes"/>
      <point x="80" y="1157"/>
      <point x="109" y="1187"/>
      <point x="143" y="1187" type="qcurve" smooth="yes"/>
      <point x="697" y="1187" type="line" smooth="yes"/>
      <point x="731" y="1187"/>
      <point x="760" y="1157"/>
      <point x="760" y="1119" type="qcurve" smooth="yes"/>
      <point x="760" y="1081"/>
      <point x="731" y="1051"/>
      <point x="697" y="1051" type="qcurve" smooth="yes"/>
      <point x="455" y="1051" type="line"/>
      <point x="455" y="715" type="line"/>
      <point x="661" y="855" type="line" smooth="yes"/>
      <point x="689" y="874"/>
      <point x="731" y="866"/>
      <point x="752" y="834" type="qcurve" smooth="yes"/>
      <point x="773" y="803"/>
      <point x="766" y="762"/>
      <point x="738" y="743" type="qcurve" smooth="yes"/>
      <point x="455" y="550" type="line"/>
      <point x="455" y="136" type="line"/>
      <point x="950" y="136" type="line"/>
      <point x="950" y="465" type="line" smooth="yes"/>
      <point x="950" y="500"/>
      <point x="983" y="530"/>
      <point x="1025" y="530" type="qcurve" smooth="yes"/>
      <point x="1067" y="530"/>
      <point x="1100" y="500"/>
      <point x="1100" y="465" type="qcurve" smooth="yes"/>
      <point x="1100" y="68" type="line" smooth="yes"/>
      <point x="1100" y="30"/>
      <point x="1071" y="0"/>
      <point x="1037" y="0" type="qcurve" smooth="yes"/>
      <point x="143" y="0" type="line" smooth="yes"/>
      <point x="109" y="0"/>
      <point x="80" y="30"/>
      <point x="80" y="68" type="qcurve" smooth="yes"/>
      <point x="80" y="106"/>
      <point x="109" y="136"/>
      <point x="143" y="136" type="qcurve" smooth="yes"/>
      <point x="305" y="136" type="line"/>
    </contour>
  </outline>
</glyph>
<glyph name="uogonek" format="2">
  <advance width="1228"/>
  <unicode hex="0173"/>
  <outline>
    <contour>
      <point x="1081" y="136" type="line" smooth="yes"/>
      <point x="1115" y="136"/>
      <point x="1144" y="106"/>
      <point x="1144" y="68" type="qcurve" smooth="yes"/>
      <point x="1144" y="30"/>
      <point x="1115" y="0"/>
      <point x="1081" y="0" type="qcurve" smooth="yes"/>
      <point x="1067" y="0" type="line"/>
      <point x="978" y="-83"/>
      <point x="901" y="-206"/>
      <point x="901" y="-261" type="qcurve" smooth="yes"/>
      <point x="901" y="-298"/>
      <point x="944" y="-336"/>
      <point x="978" y="-336" type="qcurve" smooth="yes"/>
      <point x="1007" y="-336"/>
      <point x="1065" y="-331"/>
      <point x="1091" y="-326" type="qcurve" smooth="yes"/>
      <point x="1111" y="-323"/>
      <point x="1137" y="-346"/>
      <point x="1141" y="-374" type="qcurve" smooth="yes"/>
      <point x="1146" y="-405"/>
      <point x="1131" y="-438"/>
      <point x="1109" y="-446" type="qcurve" smooth="yes"/>
      <point x="1074" y="-458"/>
      <point x="992" y="-472"/>
      <point x="945" y="-472" type="qcurve" smooth="yes"/>
      <point x="851" y="-472"/>
      <point x="745" y="-369"/>
      <point x="745" y="-281" type="qcurve" smooth="yes"/>
      <point x="745" y="-204"/>
      <point x="834" y="-66"/>
      <point x="910" y="0" type="qcurve"/>
      <point x="883" y="2"/>
      <point x="859" y="33"/>
      <point x="859" y="67" type="qcurve" smooth="yes"/>
      <point x="859" y="188" type="line"/>
      <point x="793" y="85"/>
      <point x="617" y="-22"/>
      <point x="514" y="-22" type="qcurve" smooth="yes"/>
      <point x="445" y="-22"/>
      <point x="335" y="24"/>
      <point x="296.5" y="66.0" type="qcurve" smooth="yes" name="inserted"/>
      <point x="258" y="108"/>
      <point x="217" y="229"/>
      <point x="217" y="304" type="qcurve" smooth="yes"/>
      <point x="217" y="788" type="line"/>
      <point x="135" y="788" type="line" smooth="yes"/>
      <point x="101" y="788"/>
      <point x="72" y="818"/>
      <point x="72" y="856" type="qcurve" smooth="yes"/>
      <point x="72" y="894"/>
      <point x="101" y="924"/>
      <point x="135" y="924" type="qcurve" smooth="yes"/>
      <point x="304" y="924" type="line" smooth="yes"/>
      <point x="338" y="924"/>
      <point x="367" y="894"/>
      <point x="367" y="856" type="qcurve" smooth="yes"/>
      <point x="367" y="319" type="line" smooth="yes"/>
      <point x="367" y="276"/>
      <point x="387" y="205"/>
      <point x="407.0" y="179.5" type="qcurve" smooth="yes" name="inserted"/>
      <point x="427" y="154"/>
      <point x="488" y="126"/>
      <point x="529" y="126" type="qcurve" smooth="yes"/>
      <point x="593" y="126"/>
      <point x="709" y="182"/>
      <point x="753.0" y="232.0" type="qcurve" smooth="yes" name="inserted"/>
      <point x="797" y="282"/>
      <point x="849" y="420"/>
      <point x="849" y="502" type="qcurve" smooth="yes"/>
      <point x="849" y="788" type="line"/>
      <point x="707" y="788" type="line" smooth="yes"/>
      <point x="673" y="788"/>
      <point x="644" y="818"/>
      <point x="644" y="856" type="qcurve" smooth="yes"/>
      <point x="644" y="894"/>
      <point x="673" y="924"/>
      <point x="707" y="924" type="qcurve" smooth="yes"/>
      <point x="936" y="924" type="line" smooth="yes"/>
      <point x="970" y="924"/>
      <point x="999" y="894"/>
      <point x="999" y="856" type="qcurve" smooth="yes"/>
      <point x="999" y="136" type="line"/>
    </contour>
  </outline>
</glyph>
<glyph name="caron" format="2">
  <advance width="1228"/>
  <unicode hex="02C7"/>
  <outline>
    <contour>
      <point x="614" y="1037" type="qcurve" smooth="yes"/>
      <point x="597.5" y="1037.0" name="inserted"/>
      <point x="570.0" y="1046.0"/>
      <point x="559" y="1055" type="qcurve" smooth="yes"/>
      <point x="282" y="1287" type="line" smooth="yes"/>
      <point x="266" y="1301"/>
      <point x="266" y="1337"/>
      <point x="276" y="1353" type="qcurve" smooth="yes"/>
      <point x="286" y="1369"/>
      <point x="318" y="1384"/>
      <point x="335" y="1374" type="qcurve" smooth="yes"/>
      <point x="614" y="1215" type="line"/>
      <point x="893" y="1374" type="line" smooth="yes"/>
      <point x="910" y="1384"/>
      <point x="942" y="1369"/>
      <point x="952" y="1353" type="qcurve" smooth="yes"/>
      <point x="962" y="1337"/>
      <point x="962" y="1301"/>
      <point x="946" y="1287" type="qcurve" smooth="yes"/>
      <point x="669" y="1055" type="line" smooth="yes"/>
      <point x="657.5" y="1046.0" name="inserted"/>
      <point x="630.0" y="1037.0"/>
    </contour>
  </outline>
</glyph>
<glyph name="quotesinglbase" format="2">
  <advance width="1228"/>
  <unicode hex="201A"/>
  <outline>
    <contour>
      <point x="575" y="-218" type="line" smooth="yes"/>
      <point x="564.0" y="-239.5" name="inserted"/>
      <point x="527.0" y="-261.0"/>
      <point x="501" y="-261" type="qcurve" smooth="yes"/>
      <point x="467" y="-261"/>
      <point x="431" y="-224"/>
      <point x="439" y="-192" type="qcurve" smooth="yes"/>
      <point x="540" y="254" type="line" smooth="yes"/>
      <point x="544.5" y="274.0" name="inserted"/>
      <point x="570.5" y="294.0"/>
      <point x="592" y="294" type="qcurve" smooth="yes"/>
      <point x="767" y="294" type="line" smooth="yes"/>
      <point x="792" y="294"/>
      <point x="808" y="257"/>
      <point x="795" y="231" type="qcurve" smooth="yes"/>
    </contour>
  </outline>
</glyph>
<glyph name="quotedblright" format="2">
  <advance width="1228"/>
  <unicode hex="201D"/>
  <outline>
    <contour>
      <point x="370" y="697" type="line" smooth="yes"/>
      <point x="359.0" y="675.5" name="inserted"/>
      <point x="322.0" y="654.0"/>
      <point x="296" y="654" type="qcurve" smooth="yes"/>
      <point x="262" y="654"/>
      <point x="226" y="691"/>
      <point x="234" y="723" type="qcurve" smooth="yes"/>
      <point x="335" y="1169" type="line" smooth="yes"/>
      <point x="339.5" y="1189.0" name="inserted"/>
      <point x="365.5" y="1209.0"/>
      <point x="387" y="1209" type="qcurve" smooth="yes"/>
      <point x="562" y="1209" type="line" smooth="yes"/>
      <point x="587" y="1209"/>
      <point x="603" y="1172"/>
      <point x="590" y="1146" type="qcurve" smooth="yes"/>
    </contour>
    <contour>
      <point x="780" y="697" type="line" smooth="yes"/>
      <point x="769.0" y="675.5" name="inserted"/>
      <point x="732.0" y="654.0"/>
      <point x="706" y="654" type="qcurve" smooth="yes"/>
      <point x="672" y="654"/>
      <point x="636" y="691"/>
      <point x="644" y="723" type="qcurve" smooth="yes"/>
      <point x="745" y="1169" type="line" smooth="yes"/>
      <point x="749.5" y="1189.0" name="inserted"/>
      <point x="775.5" y="1209.0"/>
      <point x="797" y="1209" type="qcurve" smooth="yes"/>
      <point x="972" y="1209" type="line" smooth="yes"/>
      <point x="997" y="1209"/>
      <point x="1013" y="1172"/>
      <point x="1000" y="1146" type="qcurve" smooth="yes"/>
    </contour>
  </outline>
</glyph>
<glyph name="quotedblbase" format="2">
  <advance width="1228"/>
  <unicode hex="201E"/>
  <outline>
    <contour>
      <point x="370" y="-218" type="line" smooth="yes"/>
      <point x="359.0" y="-239.5" name="inserted"/>
      <point x="322.0" y="-261.0"/>
      <point x="296" y="-261" type="qcurve" smooth="yes"/>
      <point x="262" y="-261"/>
      <point x="226" y="-224"/>
      <point x="234" y="-192" type="qcurve" smooth="yes"/>
      <point x="335" y="254" type="line" smooth="yes"/>
      <point x="339.5" y="274.0" name="inserted"/>
      <point x="365.5" y="294.0"/>
      <point x="387" y="294" type="qcurve" smooth="yes"/>
      <point x="562" y="294" type="line" smooth="yes"/>
      <point x="587" y="294"/>
      <point x="603" y="257"/>
      <point x="590" y="231" type="qcurve" smooth="yes"/>
    </contour>
    <contour>
      <point x="780" y="-218" type="line" smooth="yes"/>
      <point x="769.0" y="-239.5" name="inserted"/>
      <point x="732.0" y="-261.0"/>
      <point x="706" y="-261" type="qcurve" smooth="yes"/>
      <point x="672" y="-261"/>
      <point x="636" y="-224"/>
      <point x="644" y="-192" type="qcurve" smooth="yes"/>
      <point x="745" y="254" type="line" smooth="yes"/>
      <point x="749.5" y="274.0" name="inserted"/>
      <point x="775.5" y="294.0"/>
      <point x="797" y="294" type="qcurve" smooth="yes"/>
      <point x="972" y="294" type="line" smooth="yes"/>
      <point x="997" y="294"/>
      <point x="1013" y="257"/>
      <point x="1000" y="231" type="qcurve" smooth="yes"/>
    </contour>
  </outline>
</glyph>
<glyph name="integral" format="2">
  <advance width="1228"/>
  <unicode hex="222B"/>
  <outline>
    <contour>
      <point x="689" y="-7" type="line" smooth="yes"/>
      <point x="689" y="-100"/>
      <point x="638" y="-251"/>
      <point x="591.0" y="-304.5" type="qcurve" smooth="yes" name="inserted"/>
      <point x="544" y="-358"/>
      <point x="407" y="-415"/>
      <point x="322" y="-415" type="qcurve" smooth="yes"/>
      <point x="247" y="-415"/>
      <point x="104" y="-383"/>
      <point x="43" y="-357" type="qcurve" smooth="yes"/>
      <point x="16" y="-346"/>
      <point x="0" y="-307"/>
      <point x="11" y="-272" type="qcurve" smooth="yes"/>
      <point x="22" y="-238"/>
      <point x="55" y="-208"/>
      <point x="81" y="-218" type="qcurve" smooth="yes"/>
      <point x="144" y="-242"/>
      <point x="260" y="-269"/>
      <point x="320" y="-269" type="qcurve" smooth="yes"/>
      <point x="426" y="-269"/>
      <point x="539" y="-127"/>
      <point x="539" y="5" type="qcurve" smooth="yes"/>
      <point x="539" y="1109" type="line" smooth="yes"/>
      <point x="539" y="1202"/>
      <point x="590" y="1353"/>
      <point x="637.0" y="1406.5" type="qcurve" smooth="yes" name="inserted"/>
      <point x="684" y="1460"/>
      <point x="820" y="1517"/>
      <point x="906" y="1517" type="qcurve" smooth="yes"/>
      <point x="981" y="1517"/>
      <point x="1124" y="1485"/>
      <point x="1185" y="1459" type="qcurve" smooth="yes"/>
      <point x="1212" y="1448"/>
      <point x="1228" y="1409"/>
      <point x="1217" y="1374" type="qcurve" smooth="yes"/>
      <point x="1206" y="1340"/>
      <point x="1173" y="1310"/>
      <point x="1147" y="1320" type="qcurve" smooth="yes"/>
      <point x="1084" y="1344"/>
      <point x="968" y="1371"/>
      <point x="908" y="1371" type="qcurve" smooth="yes"/>
      <point x="802" y="1371"/>
      <point x="689" y="1229"/>
      <point x="689" y="1097" type="qcurve" smooth="yes"/>
    </contour>
  </outline>
</glyph>
<glyph name="commaaccent" format="2">
  <advance width="1228"/>
  <unicode hex="F6C3"/>
  <outline>
    <contour>
      <point x="574" y="-488" type="line" smooth="yes"/>
      <point x="565" y="-505"/>
      <point x="530" y="-525"/>
      <point x="509" y="-525" type="qcurve" smooth="yes"/>
      <point x="481" y="-525"/>
      <point x="455" y="-495"/>
      <point x="460" y="-469" type="qcurve" smooth="yes"/>
      <point x="522" y="-178" type="line" smooth="yes"/>
      <point x="525" y="-162"/>
      <point x="547" y="-146"/>
      <point x="564" y="-146" type="qcurve" smooth="yes"/>
      <point x="706" y="-146" type="line" smooth="yes"/>
      <point x="726" y="-146"/>
      <point x="739" y="-176"/>
      <point x="728" y="-197" type="qcurve" smooth="yes"/>
    </contour>
  </outline>
</glyph>
<glyph name="fi" format="2">
  <advance width="1228"/>
  <unicode hex="FB01"/>
  <outline>
    <contour>
      <point x="248" y="788" type="line"/>
      <point x="120" y="788" type="line" smooth="yes"/>
      <point x="86" y="788"/>
      <point x="57" y="818"/>
      <point x="57" y="856" type="qcurve" smooth="yes"/>
      <point x="57" y="894"/>
      <point x="86" y="924"/>
      <point x="120" y="924" type="qcurve" smooth="yes"/>
      <point x="248" y="924" type="line"/>
      <point x="248" y="967" type="line" smooth="yes"/>
      <point x="248" y="1049"/>
      <point x="295" y="1179"/>
      <point x="340.0" y="1224.0" type="qcurve" smooth="yes" name="inserted"/>
      <point x="385" y="1269"/>
      <point x="516" y="1317"/>
      <point x="600" y="1317" type="qcurve" smooth="yes"/>
      <point x="671" y="1317"/>
      <point x="806" y="1289"/>
      <point x="866" y="1266" type="qcurve" smooth="yes"/>
      <point x="893" y="1255"/>
      <point x="920" y="1212"/>
      <point x="911" y="1174" type="qcurve" smooth="yes"/>
      <point x="901" y="1133"/>
      <point x="863" y="1112"/>
      <point x="837" y="1122" type="qcurve" smooth="yes"/>
      <point x="778" y="1145"/>
      <point x="660" y="1171"/>
      <point x="600" y="1171" type="qcurve" smooth="yes"/>
      <point x="494" y="1171"/>
      <point x="398" y="1057"/>
      <point x="398" y="954" type="qcurve" smooth="yes"/>
      <point x="398" y="924" type="line"/>
      <point x="950" y="924" type="line" smooth="yes"/>
      <point x="984" y="924"/>
      <point x="1013" y="894"/>
      <point x="1013" y="856" type="qcurve" smooth="yes"/>
      <point x="1013" y="136" type="line"/>
      <point x="1134" y="136" type="line" smooth="yes"/>
      <point x="1168" y="136"/>
      <point x="1197" y="106"/>
      <point x="1197" y="68" type="qcurve" smooth="yes"/>
      <point x="1197" y="30"/>
      <point x="1168" y="0"/>
      <point x="1134" y="0" type="qcurve" smooth="yes"/>
      <point x="750" y="0" type="line" smooth="yes"/>
      <point x="716" y="0"/>
      <point x="687" y="30"/>
      <point x="687" y="68" type="qcurve" smooth="yes"/>
      <point x="687" y="106"/>
      <point x="716" y="136"/>
      <point x="750" y="136" type="qcurve" smooth="yes"/>
      <point x="863" y="136" type="line"/>
      <point x="863" y="788" type="line"/>
      <point x="398" y="788" type="line"/>
      <point x="398" y="136" type="line"/>
      <point x="514" y="136" type="line" smooth="yes"/>
      <point x="548" y="136"/>
      <point x="577" y="106"/>
      <point x="577" y="68" type="qcurve" smooth="yes"/>
      <point x="577" y="30"/>
      <point x="548" y="0"/>
      <point x="514" y="0" type="qcurve" smooth="yes"/>
      <point x="120" y="0" type="line" smooth="yes"/>
      <point x="86" y="0"/>
      <point x="57" y="30"/>
      <point x="57" y="68" type="qcurve" smooth="yes"/>
      <point x="57" y="106"/>
      <point x="86" y="136"/>
      <point x="120" y="136" type="qcurve" smooth="yes"/>
      <point x="248" y="136" type="line"/>
    </contour>
  </outline>
</glyph>
<glyph name="hyphen.alt" format="2">
  <advance width="1228"/>
  <outline>
    <contour>
      <point x="895" y="660" type="line" smooth="yes"/>
      <point x="929" y="660"/>
      <point x="958" y="627"/>
      <point x="958" y="582" type="qcurve" smooth="yes"/>
      <point x="958" y="537"/>
      <point x="929" y="504"/>
      <point x="895" y="504" type="qcurve" smooth="yes"/>
      <point x="333" y="504" type="line" smooth="yes"/>
      <point x="299" y="504"/>
      <point x="270" y="537"/>
      <point x="270" y="582" type="qcurve" smooth="yes"/>
      <point x="270" y="627"/>
      <point x="299" y="660"/>
      <point x="333" y="660" type="qcurve" smooth="yes"/>
    </contour>
  </outline>
</glyph>
<glyph name="semicolon.alt" format="2">
  <advance width="1228"/>
  <outline>
    <contour>
      <point x="745" y="777" type="qcurve" smooth="yes"/>
      <point x="745" y="812"/>
      <point x="772" y="873"/>
      <point x="795.0" y="896.0" type="qcurve" smooth="yes" name="inserted"/>
      <point x="818" y="919"/>
      <point x="879" y="946"/>
      <point x="914" y="946" type="qcurve" smooth="yes"/>
      <point x="949" y="946"/>
      <point x="1010" y="919"/>
      <point x="1033.0" y="896.0" type="qcurve" smooth="yes" name="inserted"/>
      <point x="1056" y="873"/>
      <point x="1083" y="812"/>
      <point x="1083" y="777" type="qcurve" smooth="yes"/>
      <point x="1083" y="742"/>
      <point x="1056" y="681"/>
      <point x="1033.0" y="658.0" type="qcurve" smooth="yes" name="inserted"/>
      <point x="1010" y="635"/>
      <point x="949" y="608"/>
      <point x="914" y="608" type="qcurve" smooth="yes"/>
      <point x="879" y="608"/>
      <point x="818" y="635"/>
      <point x="795.0" y="658.0" type="qcurve" smooth="yes" name="inserted"/>
      <point x="772" y="681"/>
      <point x="745" y="742"/>
    </contour>
    <contour>
      <point x="800" y="-253" type="line" smooth="yes"/>
      <point x="789" y="-274"/>
      <point x="754" y="-294"/>
      <point x="734" y="-294" type="qcurve" smooth="yes"/>
      <point x="720" y="-294"/>
      <point x="696" y="-285"/>
      <point x="687.0" y="-276.5" type="qcurve" smooth="yes" name="inserted"/>
      <point x="678" y="-268"/>
      <point x="671" y="-244"/>
      <point x="674" y="-228" type="qcurve" smooth="yes"/>
      <point x="778" y="254" type="line" smooth="yes"/>
      <point x="782.5" y="274.0" name="inserted"/>
      <point x="808.5" y="294.0"/>
      <point x="830" y="294" type="qcurve" smooth="yes"/>
      <point x="1024" y="294" type="line" smooth="yes"/>
      <point x="1049" y="294"/>
      <point x="1066" y="257"/>
      <point x="1052" y="231" type="qcurve" smooth="yes"/>
    </contour>
  </outline>
</glyph>
